<svg xmlns="http://www.w3.org/2000/svg" xmlns:xlink="http://www.w3.org/1999/xlink" width="1145" zoomAndPan="magnify" viewBox="0 0 858.75 158.249993" height="211" preserveAspectRatio="xMidYMid meet" version="1.0"><defs><g/><clipPath id="ba3fe957bb"><path d="M 2.578125 3.820312 L 22.613281 3.820312 L 22.613281 144.652344 L 2.578125 144.652344 Z M 2.578125 3.820312 " clip-rule="nonzero"/></clipPath><clipPath id="43b8ed1fe2"><path d="M 834.554688 3.820312 L 854.378906 3.820312 L 854.378906 144.652344 L 834.554688 144.652344 Z M 834.554688 3.820312 " clip-rule="nonzero"/></clipPath></defs><g clip-path="url(#ba3fe957bb)"><path fill="#606b54" d="M 6.472656 74.261719 C 7.261719 73.613281 8.023438 72.9375 8.699219 72.175781 C 10.222656 70.484375 11.492188 68.570312 12.503906 66.511719 C 13.519531 64.453125 14.253906 62.28125 14.789062 60.027344 C 15.296875 57.800781 15.605469 55.546875 15.746094 53.320312 C 16.058594 48.863281 15.859375 44.496094 15.804688 40.378906 C 15.746094 36.265625 15.773438 32.289062 15.886719 28.542969 C 15.945312 26.679688 16.027344 24.875 16.113281 23.15625 C 16.167969 22.3125 16.226562 21.464844 16.253906 20.648438 C 16.3125 19.859375 16.367188 19.070312 16.453125 18.335938 C 16.621094 16.84375 16.847656 15.460938 17.15625 14.25 C 17.296875 13.628906 17.464844 13.066406 17.636719 12.5 C 17.832031 11.964844 17.972656 11.429688 18.199219 10.980469 C 18.988281 9.089844 19.890625 7.90625 20.59375 7.230469 C 20.679688 7.144531 20.765625 7.0625 20.847656 7.003906 C 20.933594 6.949219 21.019531 6.863281 21.074219 6.808594 C 21.214844 6.695312 21.328125 6.582031 21.441406 6.496094 C 21.636719 6.355469 21.75 6.300781 21.75 6.300781 C 22.203125 5.960938 22.539062 5.707031 22.679688 5.425781 C 22.824219 5.144531 22.792969 4.890625 22.484375 4.75 C 22.203125 4.609375 21.890625 4.496094 21.582031 4.382812 C 21.414062 4.328125 21.273438 4.269531 21.101562 4.214844 C 20.933594 4.1875 20.792969 4.128906 20.625 4.101562 C 20.285156 4.015625 19.945312 3.960938 19.582031 3.933594 C 19.1875 3.820312 18.847656 3.820312 18.480469 3.820312 C 18.285156 3.820312 18.03125 3.875 17.71875 3.988281 C 17.4375 4.128906 17.128906 4.300781 16.789062 4.550781 C 16.453125 4.777344 16.140625 5.089844 15.832031 5.425781 C 15.691406 5.59375 15.519531 5.765625 15.410156 5.933594 C 15.296875 6.101562 15.15625 6.300781 15.042969 6.496094 C 15.042969 6.496094 14.957031 6.667969 14.789062 6.949219 C 14.621094 7.257812 14.421875 7.710938 14.140625 8.300781 C 13.632812 9.484375 13.039062 11.261719 12.589844 13.460938 C 12.140625 15.660156 11.914062 18.335938 11.828125 21.269531 C 11.746094 24.144531 11.6875 27.386719 11.714844 30.878906 C 11.746094 34.375 11.828125 38.125 11.996094 42.015625 C 12.167969 45.90625 12.363281 49.878906 12.109375 53.828125 C 11.855469 57.773438 11.097656 61.71875 9.347656 65.214844 C 8.503906 66.960938 7.429688 68.597656 6.164062 70.007812 C 5.375 70.878906 4.472656 71.667969 3.542969 72.347656 L 3.511719 72.375 C 3.257812 72.570312 3.035156 72.796875 2.894531 73.078125 C 2.695312 73.472656 2.582031 73.898438 2.609375 74.320312 C 2.609375 74.742188 2.695312 75.164062 2.894531 75.558594 C 3.035156 75.839844 3.257812 76.09375 3.511719 76.265625 L 3.542969 76.292969 C 4.5 76.96875 5.375 77.757812 6.164062 78.632812 C 7.429688 80.042969 8.503906 81.648438 9.347656 83.425781 C 11.066406 86.917969 11.855469 90.867188 12.109375 94.8125 C 12.363281 98.785156 12.167969 102.761719 11.996094 106.625 C 11.828125 110.511719 11.714844 114.261719 11.714844 117.757812 C 11.6875 121.253906 11.746094 124.46875 11.828125 127.371094 C 11.914062 130.300781 12.140625 132.953125 12.589844 135.179688 C 13.011719 137.378906 13.632812 139.152344 14.140625 140.335938 C 14.421875 140.929688 14.621094 141.378906 14.789062 141.691406 C 14.957031 142 15.042969 142.140625 15.042969 142.140625 C 15.15625 142.339844 15.269531 142.507812 15.410156 142.703125 C 15.550781 142.875 15.691406 143.042969 15.832031 143.210938 C 16.140625 143.550781 16.421875 143.859375 16.789062 144.085938 C 17.128906 144.3125 17.4375 144.507812 17.71875 144.648438 C 18.03125 144.761719 18.285156 144.820312 18.480469 144.820312 C 18.847656 144.820312 19.214844 144.820312 19.582031 144.761719 C 19.945312 144.707031 20.285156 144.648438 20.625 144.59375 C 20.792969 144.566406 20.960938 144.507812 21.101562 144.480469 C 21.273438 144.425781 21.441406 144.367188 21.582031 144.3125 C 21.890625 144.199219 22.203125 144.085938 22.484375 143.945312 C 22.792969 143.804688 22.824219 143.550781 22.679688 143.269531 C 22.539062 142.988281 22.203125 142.734375 21.75 142.394531 C 21.75 142.394531 21.636719 142.339844 21.441406 142.199219 C 21.328125 142.113281 21.214844 142.027344 21.074219 141.886719 C 20.988281 141.832031 20.933594 141.773438 20.847656 141.691406 C 20.765625 141.632812 20.679688 141.550781 20.59375 141.464844 C 19.890625 140.789062 18.960938 139.605469 18.199219 137.714844 C 17.972656 137.265625 17.832031 136.730469 17.636719 136.191406 C 17.464844 135.628906 17.296875 135.066406 17.15625 134.445312 C 16.875 133.207031 16.621094 131.824219 16.453125 130.359375 C 16.367188 129.625 16.3125 128.835938 16.253906 128.046875 C 16.199219 127.230469 16.140625 126.382812 16.113281 125.539062 C 16.027344 123.820312 15.945312 122.015625 15.886719 120.152344 C 15.773438 116.433594 15.71875 112.457031 15.804688 108.316406 C 15.859375 104.199219 16.058594 99.828125 15.746094 95.375 C 15.605469 93.148438 15.296875 90.894531 14.789062 88.667969 C 14.253906 86.441406 13.519531 84.242188 12.503906 82.183594 C 11.519531 80.125 10.25 78.210938 8.699219 76.519531 C 8.023438 75.757812 7.261719 75.050781 6.472656 74.433594 Z M 6.472656 74.261719 " fill-opacity="1" fill-rule="nonzero"/></g><g clip-path="url(#43b8ed1fe2)"><path fill="#606b54" d="M 850.695312 74.261719 C 849.90625 73.613281 849.144531 72.9375 848.46875 72.175781 C 846.945312 70.484375 845.679688 68.570312 844.664062 66.511719 C 843.648438 64.453125 842.914062 62.28125 842.378906 60.027344 C 841.871094 57.800781 841.5625 55.546875 841.421875 53.320312 C 841.113281 48.863281 841.308594 44.496094 841.367188 40.378906 C 841.421875 36.265625 841.394531 32.289062 841.28125 28.542969 C 841.222656 26.679688 841.140625 24.875 841.054688 23.15625 C 841 22.3125 840.941406 21.464844 840.914062 20.648438 C 840.859375 19.859375 840.800781 19.070312 840.71875 18.335938 C 840.546875 16.84375 840.324219 15.460938 840.011719 14.25 C 839.871094 13.628906 839.703125 13.066406 839.53125 12.5 C 839.335938 11.964844 839.195312 11.429688 838.96875 10.980469 C 838.179688 9.089844 837.277344 7.90625 836.574219 7.230469 C 836.488281 7.144531 836.402344 7.0625 836.320312 7.003906 C 836.234375 6.949219 836.148438 6.863281 836.09375 6.808594 C 835.953125 6.695312 835.839844 6.582031 835.726562 6.496094 C 835.53125 6.355469 835.417969 6.300781 835.417969 6.300781 C 834.964844 5.960938 834.628906 5.707031 834.488281 5.425781 C 834.347656 5.144531 834.375 4.890625 834.683594 4.75 C 834.964844 4.609375 835.277344 4.496094 835.585938 4.382812 C 835.753906 4.328125 835.898438 4.269531 836.066406 4.214844 C 836.234375 4.1875 836.375 4.128906 836.546875 4.101562 C 836.882812 4.015625 837.222656 3.960938 837.589844 3.933594 C 837.984375 3.820312 838.320312 3.820312 838.6875 3.820312 C 838.882812 3.820312 839.136719 3.875 839.449219 3.988281 C 839.730469 4.128906 840.039062 4.300781 840.378906 4.550781 C 840.71875 4.777344 841.027344 5.089844 841.335938 5.425781 C 841.476562 5.59375 841.648438 5.765625 841.761719 5.933594 C 841.871094 6.101562 842.011719 6.300781 842.125 6.496094 C 842.125 6.496094 842.210938 6.667969 842.378906 6.949219 C 842.550781 7.257812 842.746094 7.710938 843.027344 8.300781 C 843.535156 9.484375 844.128906 11.261719 844.578125 13.460938 C 845.03125 15.660156 845.253906 18.335938 845.339844 21.269531 C 845.425781 24.144531 845.480469 27.386719 845.453125 30.878906 C 845.425781 34.375 845.339844 38.125 845.171875 42.015625 C 845 45.90625 844.804688 49.878906 845.058594 53.828125 C 845.3125 57.773438 846.074219 61.71875 847.820312 65.214844 C 848.667969 66.960938 849.738281 68.597656 851.003906 70.007812 C 851.796875 70.878906 852.695312 71.667969 853.628906 72.347656 L 853.65625 72.375 C 853.910156 72.570312 854.132812 72.796875 854.277344 73.078125 C 854.472656 73.472656 854.585938 73.898438 854.558594 74.320312 C 854.558594 74.742188 854.472656 75.164062 854.277344 75.558594 C 854.132812 75.839844 853.910156 76.09375 853.65625 76.265625 L 853.628906 76.292969 C 852.667969 76.96875 851.796875 77.757812 851.003906 78.632812 C 849.738281 80.042969 848.667969 81.648438 847.820312 83.425781 C 846.101562 86.917969 845.3125 90.867188 845.058594 94.8125 C 844.804688 98.785156 845 102.761719 845.171875 106.625 C 845.339844 110.511719 845.453125 114.261719 845.453125 117.757812 C 845.480469 121.253906 845.425781 124.46875 845.339844 127.371094 C 845.253906 130.300781 845.03125 132.953125 844.578125 135.179688 C 844.15625 137.378906 843.535156 139.152344 843.027344 140.335938 C 842.746094 140.929688 842.550781 141.378906 842.378906 141.691406 C 842.210938 142 842.125 142.140625 842.125 142.140625 C 842.011719 142.339844 841.902344 142.507812 841.761719 142.703125 C 841.617188 142.875 841.476562 143.042969 841.335938 143.210938 C 841.027344 143.550781 840.746094 143.859375 840.378906 144.085938 C 840.039062 144.3125 839.730469 144.507812 839.449219 144.648438 C 839.136719 144.761719 838.882812 144.820312 838.6875 144.820312 C 838.320312 144.820312 837.953125 144.820312 837.589844 144.761719 C 837.222656 144.707031 836.882812 144.648438 836.546875 144.59375 C 836.375 144.566406 836.207031 144.507812 836.066406 144.480469 C 835.898438 144.425781 835.726562 144.367188 835.585938 144.3125 C 835.277344 144.199219 834.964844 144.085938 834.683594 143.945312 C 834.375 143.804688 834.347656 143.550781 834.488281 143.269531 C 834.628906 142.988281 834.964844 142.734375 835.417969 142.394531 C 835.417969 142.394531 835.53125 142.339844 835.726562 142.199219 C 835.839844 142.113281 835.953125 142.027344 836.09375 141.886719 C 836.179688 141.832031 836.234375 141.773438 836.320312 141.691406 C 836.402344 141.632812 836.488281 141.550781 836.574219 141.464844 C 837.277344 140.789062 838.207031 139.605469 838.96875 137.714844 C 839.195312 137.265625 839.335938 136.730469 839.53125 136.191406 C 839.703125 135.628906 839.871094 135.066406 840.011719 134.445312 C 840.292969 133.207031 840.546875 131.824219 840.71875 130.359375 C 840.800781 129.625 840.859375 128.835938 840.914062 128.046875 C 840.96875 127.230469 841.027344 126.382812 841.054688 125.539062 C 841.140625 123.820312 841.222656 122.015625 841.28125 120.152344 C 841.394531 116.433594 841.449219 112.457031 841.363281 108.316406 C 841.308594 104.199219 841.113281 99.828125 841.421875 95.375 C 841.5625 93.148438 841.871094 90.894531 842.378906 88.667969 C 842.914062 86.441406 843.648438 84.242188 844.664062 82.183594 C 845.648438 80.125 846.917969 78.210938 848.46875 76.519531 C 849.144531 75.757812 849.90625 75.050781 850.695312 74.433594 Z M 850.695312 74.261719 " fill-opacity="1" fill-rule="nonzero"/></g><g fill="#9fa980" fill-opacity="1"><g transform="translate(45.303662, 112.689951)"><g><path d="M 22.65625 0 L 4.78125 0 C 3.96875 0 3.5625 -0.375 3.5625 -1.125 L 3.5625 -5.15625 C 3.5625 -5.90625 3.96875 -6.28125 4.78125 -6.28125 L 9.921875 -6.28125 L 9.921875 -60.953125 L 4.78125 -60.953125 C 3.96875 -60.953125 3.5625 -61.328125 3.5625 -62.078125 L 3.5625 -66.109375 C 3.5625 -66.859375 3.96875 -67.234375 4.78125 -67.234375 L 15.171875 -67.234375 C 16.859375 -67.234375 17.703125 -66.453125 17.703125 -64.890625 L 17.703125 -6.28125 L 22.65625 -6.28125 C 23.46875 -6.28125 23.875 -5.90625 23.875 -5.15625 L 23.875 -1.125 C 23.875 -0.375 23.46875 0 22.65625 0 Z M 22.65625 0 "/></g></g></g><g fill="#9fa980" fill-opacity="1"><g transform="translate(72.739426, 112.689951)"><g><path d="M 43.625 -5.890625 C 39.257812 -1.523438 33.675781 0.65625 26.875 0.65625 C 20.070312 0.65625 14.484375 -1.507812 10.109375 -5.84375 C 5.742188 -10.1875 3.5625 -15.960938 3.5625 -23.171875 C 3.5625 -30.378906 5.773438 -36.109375 10.203125 -40.359375 C 14.640625 -44.609375 20.210938 -46.734375 26.921875 -46.734375 C 33.628906 -46.734375 39.179688 -44.59375 43.578125 -40.3125 C 47.984375 -36.03125 50.1875 -30.316406 50.1875 -23.171875 C 50.1875 -16.023438 48 -10.265625 43.625 -5.890625 Z M 11.421875 -23.125 C 11.421875 -18.007812 12.914062 -13.859375 15.90625 -10.671875 C 18.90625 -7.492188 22.570312 -5.90625 26.90625 -5.90625 C 31.25 -5.90625 34.921875 -7.492188 37.921875 -10.671875 C 40.921875 -13.859375 42.421875 -18.007812 42.421875 -23.125 C 42.421875 -28.25 40.90625 -32.367188 37.875 -35.484375 C 34.851562 -38.609375 31.21875 -40.171875 26.96875 -40.171875 C 22.71875 -40.171875 19.0625 -38.609375 16 -35.484375 C 12.945312 -32.367188 11.421875 -28.25 11.421875 -23.125 Z M 11.421875 -23.125 "/></g></g></g><g fill="#9fa980" fill-opacity="1"><g transform="translate(126.58094, 112.689951)"><g><path d="M 25.09375 21.90625 C 21.96875 21.90625 19.609375 21.6875 18.015625 21.25 C 16.429688 20.8125 15.15625 20.421875 14.1875 20.078125 C 13.21875 19.742188 12.390625 19.40625 11.703125 19.0625 C 11.015625 18.71875 10.359375 18.359375 9.734375 17.984375 C 6.992188 16.171875 5.96875 14.859375 6.65625 14.046875 L 9.078125 10.578125 C 9.453125 10.015625 9.984375 9.984375 10.671875 10.484375 C 10.734375 10.484375 10.9375 10.625 11.28125 10.90625 C 11.625 11.1875 11.96875 11.453125 12.3125 11.703125 C 12.65625 11.953125 13.125 12.25 13.71875 12.59375 C 14.3125 12.9375 14.984375 13.25 15.734375 13.53125 C 16.484375 13.8125 17.296875 14.078125 18.171875 14.328125 C 20.222656 14.890625 22.5 15.171875 25 15.171875 C 29.5 15.171875 33.101562 14.09375 35.8125 11.9375 C 38.53125 9.78125 39.890625 6.394531 39.890625 1.78125 L 39.890625 -8.890625 C 38.765625 -6.273438 36.90625 -4.03125 34.3125 -2.15625 C 31.726562 -0.28125 28.5 0.65625 24.625 0.65625 C 18.257812 0.65625 13.15625 -1.554688 9.3125 -5.984375 C 5.476562 -10.421875 3.5625 -16.164062 3.5625 -23.21875 C 3.5625 -30.269531 5.507812 -35.953125 9.40625 -40.265625 C 13.3125 -44.578125 18.382812 -46.734375 24.625 -46.734375 C 28.5 -46.734375 31.757812 -45.84375 34.40625 -44.0625 C 37.0625 -42.28125 38.984375 -40.109375 40.171875 -37.546875 L 40.359375 -37.546875 L 40.265625 -44.953125 C 40.265625 -45.703125 40.640625 -46.078125 41.390625 -46.078125 L 52.4375 -46.078125 C 53.1875 -46.078125 53.5625 -45.703125 53.5625 -44.953125 L 53.5625 -40.921875 C 53.5625 -40.171875 53.1875 -39.796875 52.4375 -39.796875 L 47.375 -39.796875 L 47.375 1.78125 C 47.375 8.457031 45.328125 13.476562 41.234375 16.84375 C 37.148438 20.21875 31.769531 21.90625 25.09375 21.90625 Z M 11.234375 -23.078125 C 11.234375 -17.929688 12.609375 -13.78125 15.359375 -10.625 C 18.109375 -7.476562 21.539062 -5.90625 25.65625 -5.90625 C 29.78125 -5.90625 33.195312 -7.460938 35.90625 -10.578125 C 38.625 -13.703125 39.984375 -17.882812 39.984375 -23.125 C 39.984375 -28.375 38.625 -32.523438 35.90625 -35.578125 C 33.195312 -38.640625 29.78125 -40.171875 25.65625 -40.171875 C 21.539062 -40.171875 18.109375 -38.609375 15.359375 -35.484375 C 12.609375 -32.367188 11.234375 -28.234375 11.234375 -23.078125 Z M 11.234375 -23.078125 "/></g></g></g><g fill="#9fa980" fill-opacity="1"><g transform="translate(183.793403, 112.689951)"><g><path d="M 22.65625 0 L 4.78125 0 C 3.96875 0 3.5625 -0.375 3.5625 -1.125 L 3.5625 -5.15625 C 3.5625 -5.90625 3.96875 -6.28125 4.78125 -6.28125 L 9.921875 -6.28125 L 9.921875 -39.796875 L 4.78125 -39.796875 C 3.96875 -39.796875 3.5625 -40.171875 3.5625 -40.921875 L 3.5625 -44.953125 C 3.5625 -45.703125 3.96875 -46.078125 4.78125 -46.078125 L 16.578125 -46.078125 C 17.328125 -46.078125 17.703125 -45.703125 17.703125 -44.953125 L 17.703125 -6.28125 L 22.65625 -6.28125 C 23.46875 -6.28125 23.875 -5.90625 23.875 -5.15625 L 23.875 -1.125 C 23.875 -0.375 23.46875 0 22.65625 0 Z M 17.375 -59.921875 C 18.40625 -58.867188 18.921875 -57.625 18.921875 -56.1875 C 18.921875 -54.75 18.40625 -53.53125 17.375 -52.53125 C 16.34375 -51.53125 15.109375 -51.03125 13.671875 -51.03125 C 12.234375 -51.03125 11 -51.53125 9.96875 -52.53125 C 8.9375 -53.53125 8.421875 -54.75 8.421875 -56.1875 C 8.421875 -57.625 8.9375 -58.867188 9.96875 -59.921875 C 11 -60.984375 12.234375 -61.515625 13.671875 -61.515625 C 15.109375 -61.515625 16.34375 -60.984375 17.375 -59.921875 Z M 17.375 -59.921875 "/></g></g></g><g fill="#9fa980" fill-opacity="1"><g transform="translate(211.229176, 112.689951)"><g><path d="M 46.265625 -10.859375 C 46.628906 -10.546875 46.8125 -10.25 46.8125 -9.96875 C 46.8125 -9.6875 46.671875 -9.3125 46.390625 -8.84375 C 46.117188 -8.375 45.53125 -7.671875 44.625 -6.734375 C 43.71875 -5.804688 42.46875 -4.75 40.875 -3.5625 C 39.28125 -2.375 37.21875 -1.375 34.6875 -0.5625 C 32.164062 0.25 29.46875 0.65625 26.59375 0.65625 C 20.039062 0.65625 14.5625 -1.492188 10.15625 -5.796875 C 5.757812 -10.109375 3.5625 -15.898438 3.5625 -23.171875 C 3.5625 -30.441406 5.757812 -36.1875 10.15625 -40.40625 C 14.5625 -44.625 19.945312 -46.734375 26.3125 -46.734375 C 32.675781 -46.734375 37.484375 -44.421875 40.734375 -39.796875 L 40.828125 -39.796875 L 40.734375 -44.953125 C 40.734375 -45.765625 41.140625 -46.171875 41.953125 -46.171875 L 45.515625 -46.171875 C 46.265625 -46.171875 46.640625 -45.765625 46.640625 -44.953125 L 46.640625 -29.03125 C 46.640625 -28.28125 46.265625 -27.90625 45.515625 -27.90625 L 41.203125 -27.90625 C 40.453125 -27.90625 40.078125 -28.28125 40.078125 -29.03125 L 40.078125 -30.625 C 40.015625 -32.863281 38.734375 -35.015625 36.234375 -37.078125 C 33.742188 -39.140625 30.578125 -40.171875 26.734375 -40.171875 C 22.890625 -40.171875 19.375 -38.640625 16.1875 -35.578125 C 13.007812 -32.523438 11.421875 -28.359375 11.421875 -23.078125 C 11.421875 -17.804688 12.976562 -13.625 16.09375 -10.53125 C 19.21875 -7.445312 22.71875 -5.90625 26.59375 -5.90625 C 30.46875 -5.90625 33.757812 -6.726562 36.46875 -8.375 C 39.1875 -10.03125 41.015625 -11.640625 41.953125 -13.203125 C 42.390625 -13.953125 42.921875 -14.046875 43.546875 -13.484375 Z M 46.265625 -10.859375 "/></g></g></g><g fill="#9fa980" fill-opacity="1"><g transform="translate(261.699742, 112.689951)"><g/></g></g><g fill="#9fa980" fill-opacity="1"><g transform="translate(291.008249, 112.689951)"><g><path d="M 26.125 0 L 4.96875 0 C 4.15625 0 3.75 -0.375 3.75 -1.125 L 3.75 -5.15625 C 3.75 -5.90625 4.15625 -6.28125 4.96875 -6.28125 L 10.109375 -6.28125 L 10.109375 -39.796875 L 4.78125 -39.796875 C 3.96875 -39.796875 3.5625 -40.171875 3.5625 -40.921875 L 3.5625 -44.953125 C 3.5625 -45.703125 3.96875 -46.078125 4.78125 -46.078125 L 10.109375 -46.078125 L 10.109375 -51.875 C 10.109375 -57.0625 11.4375 -61.007812 14.09375 -63.71875 C 16.75 -66.4375 20.445312 -67.796875 25.1875 -67.796875 C 28.6875 -67.796875 31.835938 -66.546875 34.640625 -64.046875 C 35.015625 -63.734375 35.203125 -63.4375 35.203125 -63.15625 C 35.203125 -62.875 35.109375 -62.640625 34.921875 -62.453125 L 32.6875 -59.5625 C 32.125 -59 31.59375 -58.9375 31.09375 -59.375 C 29.59375 -60.550781 27.71875 -61.140625 25.46875 -61.140625 C 23.21875 -61.140625 21.390625 -60.34375 19.984375 -58.75 C 18.585938 -57.164062 17.890625 -54.84375 17.890625 -51.78125 L 17.890625 -46.078125 L 29.875 -46.078125 C 30.6875 -46.078125 31.09375 -45.703125 31.09375 -44.953125 L 31.09375 -40.921875 C 31.09375 -40.171875 30.6875 -39.796875 29.875 -39.796875 L 17.890625 -39.796875 L 17.890625 -6.28125 L 26.125 -6.28125 C 26.875 -6.28125 27.25 -5.90625 27.25 -5.15625 L 27.25 -1.125 C 27.25 -0.375 26.875 0 26.125 0 Z M 26.125 0 "/></g></g></g><g fill="#9fa980" fill-opacity="1"><g transform="translate(327.245926, 112.689951)"><g><path d="M 43.625 -5.890625 C 39.257812 -1.523438 33.675781 0.65625 26.875 0.65625 C 20.070312 0.65625 14.484375 -1.507812 10.109375 -5.84375 C 5.742188 -10.1875 3.5625 -15.960938 3.5625 -23.171875 C 3.5625 -30.378906 5.773438 -36.109375 10.203125 -40.359375 C 14.640625 -44.609375 20.210938 -46.734375 26.921875 -46.734375 C 33.628906 -46.734375 39.179688 -44.59375 43.578125 -40.3125 C 47.984375 -36.03125 50.1875 -30.316406 50.1875 -23.171875 C 50.1875 -16.023438 48 -10.265625 43.625 -5.890625 Z M 11.421875 -23.125 C 11.421875 -18.007812 12.914062 -13.859375 15.90625 -10.671875 C 18.90625 -7.492188 22.570312 -5.90625 26.90625 -5.90625 C 31.25 -5.90625 34.921875 -7.492188 37.921875 -10.671875 C 40.921875 -13.859375 42.421875 -18.007812 42.421875 -23.125 C 42.421875 -28.25 40.90625 -32.367188 37.875 -35.484375 C 34.851562 -38.609375 31.21875 -40.171875 26.96875 -40.171875 C 22.71875 -40.171875 19.0625 -38.609375 16 -35.484375 C 12.945312 -32.367188 11.421875 -28.25 11.421875 -23.125 Z M 11.421875 -23.125 "/></g></g></g><g fill="#9fa980" fill-opacity="1"><g transform="translate(381.087432, 112.689951)"><g><path d="M 22.65625 0 L 4.78125 0 C 3.96875 0 3.5625 -0.375 3.5625 -1.125 L 3.5625 -5.15625 C 3.5625 -5.90625 3.96875 -6.28125 4.78125 -6.28125 L 9.921875 -6.28125 L 9.921875 -39.796875 L 4.78125 -39.796875 C 3.96875 -39.796875 3.5625 -40.171875 3.5625 -40.921875 L 3.5625 -44.953125 C 3.5625 -45.703125 3.96875 -46.078125 4.78125 -46.078125 L 15.734375 -46.078125 C 16.546875 -46.078125 16.953125 -45.703125 16.953125 -44.953125 L 16.953125 -33.25 L 17.234375 -33.25 C 17.421875 -34.238281 18.070312 -35.609375 19.1875 -37.359375 C 20.3125 -39.109375 21.546875 -40.5625 22.890625 -41.71875 C 24.234375 -42.875 26.171875 -43.921875 28.703125 -44.859375 C 31.234375 -45.796875 34.085938 -46.265625 37.265625 -46.265625 C 38.078125 -46.265625 38.484375 -45.859375 38.484375 -45.046875 L 38.484375 -40.078125 C 38.484375 -39.265625 38.078125 -38.859375 37.265625 -38.859375 L 35.296875 -38.859375 C 29.929688 -38.859375 25.65625 -37.140625 22.46875 -33.703125 C 19.289062 -30.273438 17.703125 -26.375 17.703125 -22 L 17.703125 -6.28125 L 22.65625 -6.28125 C 23.46875 -6.28125 23.875 -5.90625 23.875 -5.15625 L 23.875 -1.125 C 23.875 -0.375 23.46875 0 22.65625 0 Z M 22.65625 0 "/></g></g></g><g fill="#9fa980" fill-opacity="1"><g transform="translate(420.508794, 112.689951)"><g/></g></g><g fill="#9fa980" fill-opacity="1"><g transform="translate(449.817283, 112.689951)"><g><path d="M 24.34375 0.65625 C 20.164062 0.65625 16.828125 -0.125 14.328125 -1.6875 C 11.828125 -3.25 10.265625 -4.71875 9.640625 -6.09375 L 9.453125 -6.09375 C 9.578125 -3.03125 9.640625 -1.40625 9.640625 -1.21875 C 9.640625 -0.40625 9.203125 0 8.328125 0 L 5.15625 0 C 4.34375 0 3.9375 -0.40625 3.9375 -1.21875 L 3.9375 -15.265625 C 3.9375 -16.078125 4.34375 -16.484375 5.15625 -16.484375 L 8.796875 -16.484375 C 9.671875 -16.484375 10.109375 -16.078125 10.109375 -15.265625 L 10.109375 -13.390625 C 10.734375 -11.515625 12.046875 -9.796875 14.046875 -8.234375 C 16.421875 -6.367188 19.382812 -5.4375 22.9375 -5.4375 C 29.925781 -5.4375 33.421875 -7.867188 33.421875 -12.734375 C 33.421875 -14.421875 32.453125 -15.78125 30.515625 -16.8125 C 28.585938 -17.84375 26.234375 -18.695312 23.453125 -19.375 C 20.679688 -20.0625 17.921875 -20.84375 15.171875 -21.71875 C 12.421875 -22.59375 10.078125 -24.015625 8.140625 -25.984375 C 6.210938 -27.953125 5.25 -30.429688 5.25 -33.421875 C 5.25 -37.484375 6.710938 -40.71875 9.640625 -43.125 C 12.578125 -45.53125 16.320312 -46.734375 20.875 -46.734375 C 27.0625 -46.734375 31.492188 -44.921875 34.171875 -41.296875 L 34.359375 -41.296875 C 34.234375 -43.546875 34.171875 -44.703125 34.171875 -44.765625 C 34.171875 -45.578125 34.578125 -45.984375 35.390625 -45.984375 L 38.390625 -45.984375 C 39.203125 -45.984375 39.609375 -45.578125 39.609375 -44.765625 L 39.609375 -31.75 C 39.609375 -30.9375 39.203125 -30.53125 38.390625 -30.53125 L 34.734375 -30.53125 C 33.859375 -30.53125 33.421875 -30.9375 33.421875 -31.75 L 33.421875 -33.0625 C 33.421875 -34.738281 32.4375 -36.40625 30.46875 -38.0625 C 28.507812 -39.71875 25.96875 -40.546875 22.84375 -40.546875 C 19.726562 -40.546875 17.296875 -39.890625 15.546875 -38.578125 C 13.796875 -37.265625 12.921875 -35.5625 12.921875 -33.46875 C 12.921875 -31.382812 13.90625 -29.765625 15.875 -28.609375 C 17.84375 -27.453125 20.226562 -26.546875 23.03125 -25.890625 C 25.84375 -25.234375 28.648438 -24.5 31.453125 -23.6875 C 34.265625 -22.875 36.65625 -21.53125 38.625 -19.65625 C 40.59375 -17.789062 41.578125 -15.203125 41.578125 -11.890625 C 41.578125 -8.578125 40.15625 -5.65625 37.3125 -3.125 C 34.476562 -0.601562 30.15625 0.65625 24.34375 0.65625 Z M 24.34375 0.65625 "/></g></g></g><g fill="#9fa980" fill-opacity="1"><g transform="translate(495.325049, 112.689951)"><g><path d="M 24.4375 -1.03125 C 23.4375 -1.03125 22.625 -1.8125 22 -3.375 L 7.671875 -39.796875 L 2.53125 -39.796875 C 1.78125 -39.796875 1.40625 -40.171875 1.40625 -40.921875 L 1.40625 -44.953125 C 1.40625 -45.703125 1.78125 -46.078125 2.53125 -46.078125 L 19.484375 -46.078125 C 20.285156 -46.078125 20.6875 -45.703125 20.6875 -44.953125 L 20.6875 -40.921875 C 20.6875 -40.171875 20.285156 -39.796875 19.484375 -39.796875 L 15.640625 -39.796875 L 27.71875 -8.046875 L 27.90625 -8.046875 L 39.140625 -39.796875 L 34.921875 -39.796875 C 34.171875 -39.796875 33.796875 -40.171875 33.796875 -40.921875 L 33.796875 -44.953125 C 33.796875 -45.703125 34.171875 -46.078125 34.921875 -46.078125 L 52.34375 -46.078125 C 53.09375 -46.078125 53.46875 -45.703125 53.46875 -44.953125 L 53.46875 -40.921875 C 53.46875 -40.171875 53.09375 -39.796875 52.34375 -39.796875 L 47.09375 -39.796875 L 30.4375 6 C 28.375 11.550781 26.234375 15.585938 24.015625 18.109375 C 21.796875 20.640625 18.765625 21.90625 14.921875 21.90625 C 11.085938 21.90625 7.800781 20.691406 5.0625 18.265625 C 4.4375 17.640625 4.34375 17.078125 4.78125 16.578125 L 7.109375 13.578125 C 7.671875 13.140625 8.234375 13.109375 8.796875 13.484375 C 10.296875 14.671875 12.078125 15.265625 14.140625 15.265625 C 16.203125 15.265625 17.898438 14.5625 19.234375 13.15625 C 20.578125 11.75 21.875 9.332031 23.125 5.90625 L 25.65625 -1.03125 Z M 24.4375 -1.03125 "/></g></g></g><g fill="#9fa980" fill-opacity="1"><g transform="translate(550.571106, 112.689951)"><g><path d="M 24.34375 0.65625 C 20.164062 0.65625 16.828125 -0.125 14.328125 -1.6875 C 11.828125 -3.25 10.265625 -4.71875 9.640625 -6.09375 L 9.453125 -6.09375 C 9.578125 -3.03125 9.640625 -1.40625 9.640625 -1.21875 C 9.640625 -0.40625 9.203125 0 8.328125 0 L 5.15625 0 C 4.34375 0 3.9375 -0.40625 3.9375 -1.21875 L 3.9375 -15.265625 C 3.9375 -16.078125 4.34375 -16.484375 5.15625 -16.484375 L 8.796875 -16.484375 C 9.671875 -16.484375 10.109375 -16.078125 10.109375 -15.265625 L 10.109375 -13.390625 C 10.734375 -11.515625 12.046875 -9.796875 14.046875 -8.234375 C 16.421875 -6.367188 19.382812 -5.4375 22.9375 -5.4375 C 29.925781 -5.4375 33.421875 -7.867188 33.421875 -12.734375 C 33.421875 -14.421875 32.453125 -15.78125 30.515625 -16.8125 C 28.585938 -17.84375 26.234375 -18.695312 23.453125 -19.375 C 20.679688 -20.0625 17.921875 -20.84375 15.171875 -21.71875 C 12.421875 -22.59375 10.078125 -24.015625 8.140625 -25.984375 C 6.210938 -27.953125 5.25 -30.429688 5.25 -33.421875 C 5.25 -37.484375 6.710938 -40.71875 9.640625 -43.125 C 12.578125 -45.53125 16.320312 -46.734375 20.875 -46.734375 C 27.0625 -46.734375 31.492188 -44.921875 34.171875 -41.296875 L 34.359375 -41.296875 C 34.234375 -43.546875 34.171875 -44.703125 34.171875 -44.765625 C 34.171875 -45.578125 34.578125 -45.984375 35.390625 -45.984375 L 38.390625 -45.984375 C 39.203125 -45.984375 39.609375 -45.578125 39.609375 -44.765625 L 39.609375 -31.75 C 39.609375 -30.9375 39.203125 -30.53125 38.390625 -30.53125 L 34.734375 -30.53125 C 33.859375 -30.53125 33.421875 -30.9375 33.421875 -31.75 L 33.421875 -33.0625 C 33.421875 -34.738281 32.4375 -36.40625 30.46875 -38.0625 C 28.507812 -39.71875 25.96875 -40.546875 22.84375 -40.546875 C 19.726562 -40.546875 17.296875 -39.890625 15.546875 -38.578125 C 13.796875 -37.265625 12.921875 -35.5625 12.921875 -33.46875 C 12.921875 -31.382812 13.90625 -29.765625 15.875 -28.609375 C 17.84375 -27.453125 20.226562 -26.546875 23.03125 -25.890625 C 25.84375 -25.234375 28.648438 -24.5 31.453125 -23.6875 C 34.265625 -22.875 36.65625 -21.53125 38.625 -19.65625 C 40.59375 -17.789062 41.578125 -15.203125 41.578125 -11.890625 C 41.578125 -8.578125 40.15625 -5.65625 37.3125 -3.125 C 34.476562 -0.601562 30.15625 0.65625 24.34375 0.65625 Z M 24.34375 0.65625 "/></g></g></g><g fill="#9fa980" fill-opacity="1"><g transform="translate(596.078872, 112.689951)"><g><path d="M 34.828125 -4.78125 C 35.078125 -4.53125 35.203125 -4.265625 35.203125 -3.984375 C 35.203125 -3.703125 35.015625 -3.375 34.640625 -3 C 31.898438 -0.5625 28.453125 0.65625 24.296875 0.65625 C 20.148438 0.65625 16.75 -0.695312 14.09375 -3.40625 C 11.4375 -6.125 10.109375 -10.078125 10.109375 -15.265625 L 10.109375 -39.796875 L 4.875 -39.796875 C 4 -39.796875 3.5625 -40.203125 3.5625 -41.015625 L 3.5625 -44.859375 C 3.5625 -45.671875 4 -46.078125 4.875 -46.078125 L 10.109375 -46.078125 L 10.109375 -55.53125 C 10.109375 -56.40625 10.546875 -56.84375 11.421875 -56.84375 L 16.671875 -56.84375 C 17.484375 -56.84375 17.890625 -56.40625 17.890625 -55.53125 L 17.890625 -46.078125 L 29.78125 -46.078125 C 30.65625 -46.078125 31.09375 -45.671875 31.09375 -44.859375 L 31.09375 -41.015625 C 31.09375 -40.203125 30.65625 -39.796875 29.78125 -39.796875 L 17.890625 -39.796875 L 17.890625 -15.453125 C 17.890625 -12.328125 18.585938 -9.96875 19.984375 -8.375 C 21.390625 -6.789062 23.265625 -6 25.609375 -6 C 27.953125 -6 29.71875 -6.585938 30.90625 -7.765625 C 31.53125 -8.328125 32.09375 -8.296875 32.59375 -7.671875 Z M 34.828125 -4.78125 "/></g></g></g><g fill="#9fa980" fill-opacity="1"><g transform="translate(633.627464, 112.689951)"><g><path d="M 45.234375 -22.09375 L 11.515625 -22.09375 C 11.765625 -16.914062 13.398438 -12.921875 16.421875 -10.109375 C 19.453125 -7.304688 22.875 -5.90625 26.6875 -5.90625 C 30.5 -5.90625 33.757812 -6.710938 36.46875 -8.328125 C 39.1875 -9.953125 41.015625 -11.546875 41.953125 -13.109375 C 42.453125 -13.734375 43.015625 -13.828125 43.640625 -13.390625 L 46.171875 -10.859375 C 46.546875 -10.484375 46.734375 -10.15625 46.734375 -9.875 C 46.734375 -9.59375 46.59375 -9.234375 46.3125 -8.796875 C 46.03125 -8.359375 45.453125 -7.671875 44.578125 -6.734375 C 43.703125 -5.804688 42.46875 -4.75 40.875 -3.5625 C 39.28125 -2.375 37.21875 -1.375 34.6875 -0.5625 C 32.164062 0.25 29.46875 0.65625 26.59375 0.65625 C 20.039062 0.65625 14.5625 -1.492188 10.15625 -5.796875 C 5.757812 -10.109375 3.5625 -15.898438 3.5625 -23.171875 C 3.5625 -30.441406 5.742188 -36.1875 10.109375 -40.40625 C 14.484375 -44.625 19.835938 -46.734375 26.171875 -46.734375 C 32.503906 -46.734375 37.484375 -44.6875 41.109375 -40.59375 C 44.734375 -36.5 46.546875 -30.988281 46.546875 -24.0625 C 46.546875 -23.8125 46.546875 -23.5625 46.546875 -23.3125 C 46.546875 -22.5 46.109375 -22.09375 45.234375 -22.09375 Z M 38.765625 -27.8125 C 38.578125 -31.675781 37.359375 -34.765625 35.109375 -37.078125 C 32.867188 -39.390625 29.875 -40.546875 26.125 -40.546875 C 22.375 -40.546875 19.15625 -39.484375 16.46875 -37.359375 C 13.789062 -35.234375 12.203125 -32.050781 11.703125 -27.8125 Z M 38.765625 -27.8125 "/></g></g></g><g fill="#9fa980" fill-opacity="1"><g transform="translate(684.004375, 112.689951)"><g><path d="M 82.40625 0 L 73.515625 0 C 72.078125 0 71.03125 -0.296875 70.375 -0.890625 C 69.71875 -1.484375 69.390625 -2.5 69.390625 -3.9375 L 69.390625 -28.5625 C 69.390625 -32.175781 68.53125 -34.984375 66.8125 -36.984375 C 65.09375 -38.984375 62.550781 -39.984375 59.1875 -39.984375 C 54.25 -39.984375 50.375 -37.828125 47.5625 -33.515625 C 47.9375 -32.398438 48.125 -31.15625 48.125 -29.78125 L 48.125 -6.28125 L 53.375 -6.28125 C 54.125 -6.28125 54.5 -5.90625 54.5 -5.15625 L 54.5 -1.125 C 54.5 -0.375 54.125 0 53.375 0 L 35.484375 0 C 34.671875 0 34.265625 -0.375 34.265625 -1.125 L 34.265625 -5.15625 C 34.265625 -5.90625 34.671875 -6.28125 35.484375 -6.28125 L 40.453125 -6.28125 L 40.453125 -28.5625 C 40.453125 -32.175781 39.578125 -34.984375 37.828125 -36.984375 C 36.078125 -38.984375 33.519531 -39.984375 30.15625 -39.984375 C 27.59375 -39.984375 25.640625 -39.59375 24.296875 -38.8125 C 22.953125 -38.03125 21.9375 -37.34375 21.25 -36.75 C 20.5625 -36.15625 20.003906 -35.578125 19.578125 -35.015625 C 18.828125 -34.015625 18.203125 -32.988281 17.703125 -31.9375 L 17.703125 -6.28125 L 22.28125 -6.28125 C 23.03125 -6.28125 23.40625 -5.90625 23.40625 -5.15625 L 23.40625 -1.125 C 23.40625 -0.375 23.03125 0 22.28125 0 L 4.78125 0 C 3.96875 0 3.5625 -0.375 3.5625 -1.125 L 3.5625 -5.15625 C 3.5625 -5.90625 3.96875 -6.28125 4.78125 -6.28125 L 9.921875 -6.28125 L 9.921875 -39.796875 L 4.78125 -39.796875 C 3.96875 -39.796875 3.5625 -40.171875 3.5625 -40.921875 L 3.5625 -44.953125 C 3.5625 -45.703125 3.96875 -46.078125 4.78125 -46.078125 L 13.953125 -46.078125 C 15.015625 -46.078125 15.78125 -45.875 16.25 -45.46875 C 16.71875 -45.0625 16.953125 -44.328125 16.953125 -43.265625 L 16.765625 -38.578125 L 17.046875 -38.578125 C 20.285156 -44.015625 25.320312 -46.734375 32.15625 -46.734375 C 39 -46.734375 43.671875 -44.140625 46.171875 -38.953125 C 49.722656 -44.140625 54.742188 -46.734375 61.234375 -46.734375 C 66.234375 -46.734375 70.117188 -45.265625 72.890625 -42.328125 C 75.671875 -39.390625 77.0625 -35.425781 77.0625 -30.4375 L 77.15625 -6.28125 L 82.40625 -6.28125 C 83.21875 -6.28125 83.625 -5.90625 83.625 -5.15625 L 83.625 -1.125 C 83.625 -0.375 83.21875 0 82.40625 0 Z M 82.40625 0 "/></g></g></g><g fill="#9fa980" fill-opacity="1"><g transform="translate(771.180784, 112.689951)"><g><path d="M 24.34375 0.65625 C 20.164062 0.65625 16.828125 -0.125 14.328125 -1.6875 C 11.828125 -3.25 10.265625 -4.71875 9.640625 -6.09375 L 9.453125 -6.09375 C 9.578125 -3.03125 9.640625 -1.40625 9.640625 -1.21875 C 9.640625 -0.40625 9.203125 0 8.328125 0 L 5.15625 0 C 4.34375 0 3.9375 -0.40625 3.9375 -1.21875 L 3.9375 -15.265625 C 3.9375 -16.078125 4.34375 -16.484375 5.15625 -16.484375 L 8.796875 -16.484375 C 9.671875 -16.484375 10.109375 -16.078125 10.109375 -15.265625 L 10.109375 -13.390625 C 10.734375 -11.515625 12.046875 -9.796875 14.046875 -8.234375 C 16.421875 -6.367188 19.382812 -5.4375 22.9375 -5.4375 C 29.925781 -5.4375 33.421875 -7.867188 33.421875 -12.734375 C 33.421875 -14.421875 32.453125 -15.78125 30.515625 -16.8125 C 28.585938 -17.84375 26.234375 -18.695312 23.453125 -19.375 C 20.679688 -20.0625 17.921875 -20.84375 15.171875 -21.71875 C 12.421875 -22.59375 10.078125 -24.015625 8.140625 -25.984375 C 6.210938 -27.953125 5.25 -30.429688 5.25 -33.421875 C 5.25 -37.484375 6.710938 -40.71875 9.640625 -43.125 C 12.578125 -45.53125 16.320312 -46.734375 20.875 -46.734375 C 27.0625 -46.734375 31.492188 -44.921875 34.171875 -41.296875 L 34.359375 -41.296875 C 34.234375 -43.546875 34.171875 -44.703125 34.171875 -44.765625 C 34.171875 -45.578125 34.578125 -45.984375 35.390625 -45.984375 L 38.390625 -45.984375 C 39.203125 -45.984375 39.609375 -45.578125 39.609375 -44.765625 L 39.609375 -31.75 C 39.609375 -30.9375 39.203125 -30.53125 38.390625 -30.53125 L 34.734375 -30.53125 C 33.859375 -30.53125 33.421875 -30.9375 33.421875 -31.75 L 33.421875 -33.0625 C 33.421875 -34.738281 32.4375 -36.40625 30.46875 -38.0625 C 28.507812 -39.71875 25.96875 -40.546875 22.84375 -40.546875 C 19.726562 -40.546875 17.296875 -39.890625 15.546875 -38.578125 C 13.796875 -37.265625 12.921875 -35.5625 12.921875 -33.46875 C 12.921875 -31.382812 13.90625 -29.765625 15.875 -28.609375 C 17.84375 -27.453125 20.226562 -26.546875 23.03125 -25.890625 C 25.84375 -25.234375 28.648438 -24.5 31.453125 -23.6875 C 34.265625 -22.875 36.65625 -21.53125 38.625 -19.65625 C 40.59375 -17.789062 41.578125 -15.203125 41.578125 -11.890625 C 41.578125 -8.578125 40.15625 -5.65625 37.3125 -3.125 C 34.476562 -0.601562 30.15625 0.65625 24.34375 0.65625 Z M 24.34375 0.65625 "/></g></g></g><g fill="#606b54" fill-opacity="1"><g transform="translate(150.617285, 31.435482)"><g><path d="M 9.246094 0 C 9.585938 0 9.78125 -0.183594 9.78125 -0.535156 L 9.78125 -16.117188 L 13.960938 -16.117188 C 14.3125 -16.117188 14.496094 -16.3125 14.496094 -16.652344 L 14.496094 -19.523438 C 14.496094 -19.878906 14.3125 -20.058594 13.960938 -20.058594 L 1.003906 -20.058594 C 0.667969 -20.058594 0.46875 -19.878906 0.46875 -19.523438 L 0.46875 -16.652344 C 0.46875 -16.3125 0.667969 -16.117188 1.003906 -16.117188 L 5.183594 -16.117188 L 5.183594 -0.535156 C 5.183594 -0.183594 5.378906 0 5.71875 0 Z M 9.246094 0 "/></g></g></g><g fill="#606b54" fill-opacity="1"><g transform="translate(165.605057, 31.435482)"><g><path d="M 3.878906 -15.554688 C 5.238281 -15.554688 6.269531 -16.574219 6.269531 -17.945312 C 6.269531 -19.277344 5.238281 -20.335938 3.878906 -20.335938 C 2.546875 -20.335938 1.5 -19.277344 1.5 -17.945312 C 1.5 -16.574219 2.546875 -15.554688 3.878906 -15.554688 Z M 5.460938 0 C 5.796875 0 5.996094 -0.183594 5.996094 -0.535156 L 5.996094 -13.960938 C 5.996094 -14.3125 5.796875 -14.496094 5.460938 -14.496094 L 2.351562 -14.496094 C 2.011719 -14.496094 1.816406 -14.3125 1.816406 -13.960938 L 1.816406 -0.535156 C 1.816406 -0.183594 2.011719 0 2.351562 0 Z M 5.460938 0 "/></g></g></g><g fill="#606b54" fill-opacity="1"><g transform="translate(173.438387, 31.435482)"><g><path d="M 18.949219 -14.808594 C 17.121094 -14.808594 15.148438 -14.011719 13.933594 -12.539062 C 13.113281 -13.988281 11.558594 -14.808594 9.914062 -14.808594 C 8.460938 -14.808594 6.933594 -14.339844 5.355469 -12.824219 L 4.960938 -14.039062 C 4.859375 -14.339844 4.675781 -14.496094 4.375 -14.496094 L 2.351562 -14.496094 C 2.011719 -14.496094 1.816406 -14.3125 1.816406 -13.960938 L 1.816406 -0.535156 C 1.816406 -0.183594 2.011719 0 2.351562 0 L 5.460938 0 C 5.796875 0 5.996094 -0.183594 5.996094 -0.535156 L 5.996094 -8.382812 C 5.996094 -10.09375 6.871094 -11.269531 8.59375 -11.269531 C 10.34375 -11.269531 10.945312 -10.070312 10.945312 -8.34375 L 10.945312 -0.535156 C 10.945312 -0.183594 11.128906 0 11.480469 0 L 14.574219 0 C 14.925781 0 15.109375 -0.183594 15.109375 -0.535156 L 15.109375 -8.382812 C 15.109375 -10.09375 16.011719 -11.269531 17.695312 -11.269531 C 19.367188 -11.269531 20.019531 -10.070312 20.019531 -8.34375 L 20.019531 -0.535156 C 20.019531 -0.183594 20.203125 0 20.554688 0 L 23.652344 0 C 24.003906 0 24.1875 -0.183594 24.1875 -0.535156 L 24.1875 -9.207031 C 24.1875 -12.40625 22.226562 -14.808594 18.949219 -14.808594 Z M 18.949219 -14.808594 "/></g></g></g><g fill="#606b54" fill-opacity="1"><g transform="translate(199.288378, 31.435482)"><g/></g></g><g fill="#606b54" fill-opacity="1"><g transform="translate(207.591709, 31.435482)"><g><path d="M 5.902344 0 C 6.242188 0 6.425781 -0.183594 6.425781 -0.535156 L 6.425781 -11.453125 L 17.65625 0 C 18.425781 0.769531 19.082031 0.457031 19.082031 -0.46875 L 19.082031 -19.523438 C 19.082031 -19.878906 18.882812 -20.058594 18.546875 -20.058594 L 15.1875 -20.058594 C 14.835938 -20.058594 14.652344 -19.878906 14.652344 -19.523438 L 14.652344 -8.867188 L 3.316406 -20.164062 C 2.597656 -20.84375 2.011719 -20.53125 2.011719 -19.601562 L 2.011719 -0.535156 C 2.011719 -0.183594 2.195312 0 2.546875 0 Z M 5.902344 0 "/></g></g></g><g fill="#606b54" fill-opacity="1"><g transform="translate(228.676423, 31.435482)"><g><path d="M 8.476562 -14.808594 C 4.285156 -14.808594 1.203125 -11.882812 1.203125 -7.25 C 1.203125 -2.535156 4.585938 0.3125 8.699219 0.3125 C 10.710938 0.3125 12.785156 -0.390625 14.546875 -1.800781 C 14.875 -2.0625 14.925781 -2.335938 14.691406 -2.574219 L 13.125 -4.542969 C 12.902344 -4.78125 12.695312 -4.792969 12.40625 -4.585938 C 11.285156 -3.710938 10.015625 -3.238281 8.828125 -3.238281 C 7 -3.238281 5.300781 -4.375 5.210938 -6.621094 L 14.953125 -6.621094 C 15.421875 -6.621094 15.566406 -6.816406 15.566406 -7.300781 C 15.566406 -11.882812 12.695312 -14.808594 8.476562 -14.808594 Z M 8.582031 -11.546875 C 9.78125 -11.546875 11.035156 -10.96875 11.363281 -9.324219 L 5.460938 -9.324219 C 5.929688 -10.996094 7.417969 -11.546875 8.582031 -11.546875 Z M 8.582031 -11.546875 "/></g></g></g><g fill="#606b54" fill-opacity="1"><g transform="translate(245.387528, 31.435482)"><g><path d="M 6.6875 0.3125 C 7.40625 0.3125 8.175781 0.261719 9 0.0273438 C 9.324219 -0.0664062 9.457031 -0.328125 9.363281 -0.652344 L 8.789062 -2.847656 C 8.699219 -3.171875 8.460938 -3.292969 8.125 -3.199219 C 7.796875 -3.109375 7.46875 -3.082031 7.210938 -3.082031 C 6.398438 -3.082031 5.863281 -3.472656 5.863281 -4.425781 L 5.863281 -19.523438 C 5.863281 -19.878906 5.679688 -20.058594 5.328125 -20.058594 L 2.234375 -20.058594 C 1.878906 -20.058594 1.699219 -19.878906 1.699219 -19.523438 L 1.699219 -4.101562 C 1.699219 -1.214844 3.722656 0.3125 6.6875 0.3125 Z M 6.6875 0.3125 "/></g></g></g><g fill="#606b54" fill-opacity="1"><g transform="translate(255.414192, 31.435482)"><g><path d="M 6.28125 0.3125 C 9.117188 0.3125 12.144531 -0.757812 12.144531 -4.386719 C 12.144531 -6.816406 10.292969 -7.941406 8.554688 -8.710938 C 6.933594 -9.441406 5.417969 -9.847656 5.417969 -10.695312 C 5.417969 -11.285156 5.941406 -11.53125 6.726562 -11.53125 C 7.574219 -11.53125 8.761719 -11.246094 9.875 -10.867188 C 10.199219 -10.75 10.460938 -10.890625 10.550781 -11.21875 L 11.21875 -13.476562 C 11.335938 -13.816406 11.179688 -14.039062 10.878906 -14.128906 C 9.441406 -14.574219 7.925781 -14.808594 6.75 -14.808594 C 3.984375 -14.808594 1.292969 -13.492188 1.292969 -10.160156 C 1.292969 -8.097656 2.792969 -6.972656 4.375 -6.136719 C 6.113281 -5.238281 7.980469 -4.765625 7.980469 -3.96875 C 7.980469 -3.148438 7.289062 -2.886719 6.320312 -2.886719 C 5.367188 -2.886719 4.101562 -3.132812 2.847656 -3.527344 C 2.496094 -3.628906 2.285156 -3.527344 2.167969 -3.210938 L 1.421875 -0.964844 C 1.320312 -0.667969 1.421875 -0.390625 1.800781 -0.300781 C 3.460938 0.105469 4.898438 0.3125 6.28125 0.3125 Z M 6.28125 0.3125 "/></g></g></g><g fill="#606b54" fill-opacity="1"><g transform="translate(268.704742, 31.435482)"><g><path d="M 9.011719 0.3125 C 13.59375 0.3125 16.925781 -2.820312 16.925781 -7.25 C 16.925781 -11.675781 13.59375 -14.808594 9.011719 -14.808594 C 4.480469 -14.808594 1.148438 -11.675781 1.148438 -7.25 C 1.148438 -2.820312 4.480469 0.3125 9.011719 0.3125 Z M 9.011719 -3.304688 C 6.792969 -3.304688 5.300781 -5.015625 5.300781 -7.25 C 5.300781 -9.496094 6.792969 -11.191406 9.011719 -11.191406 C 11.296875 -11.191406 12.773438 -9.496094 12.773438 -7.25 C 12.773438 -5.015625 11.296875 -3.304688 9.011719 -3.304688 Z M 9.011719 -3.304688 "/></g></g></g><g fill="#606b54" fill-opacity="1"><g transform="translate(286.773624, 31.435482)"><g><path d="M 10.488281 -14.808594 C 8.800781 -14.808594 6.972656 -14.195312 5.378906 -12.707031 L 4.960938 -14.039062 C 4.859375 -14.339844 4.675781 -14.496094 4.375 -14.496094 L 2.351562 -14.496094 C 2.011719 -14.496094 1.816406 -14.3125 1.816406 -13.960938 L 1.816406 -0.535156 C 1.816406 -0.183594 2.011719 0 2.351562 0 L 5.460938 0 C 5.796875 0 5.996094 -0.183594 5.996094 -0.535156 L 5.996094 -8.097656 C 5.996094 -9.953125 7.25 -11.257812 9 -11.257812 C 10.773438 -11.257812 11.742188 -9.886719 11.742188 -8.109375 L 11.742188 -0.535156 C 11.742188 -0.183594 11.921875 0 12.277344 0 L 15.371094 0 C 15.722656 0 15.90625 -0.183594 15.90625 -0.535156 L 15.90625 -8.855469 C 15.90625 -11.453125 14.824219 -14.808594 10.488281 -14.808594 Z M 10.488281 -14.808594 "/></g></g></g><g fill="#606b54" fill-opacity="1"><g transform="translate(304.346396, 31.435482)"><g/></g></g><g fill="#606b54" fill-opacity="1"><g transform="translate(312.649726, 31.435482)"><g><path d="M 28.027344 -5.695312 C 28.3125 -5.695312 28.5625 -5.941406 28.5625 -6.230469 L 28.5625 -8.28125 C 28.5625 -8.582031 28.3125 -8.816406 28.027344 -8.816406 L 2.351562 -8.816406 C 2.050781 -8.816406 1.816406 -8.582031 1.816406 -8.28125 L 1.816406 -6.230469 C 1.816406 -5.941406 2.050781 -5.695312 2.351562 -5.695312 Z M 28.027344 -5.695312 "/></g></g></g><g fill="#606b54" fill-opacity="1"><g transform="translate(343.011364, 31.435482)"><g/></g></g><g fill="#606b54" fill-opacity="1"><g transform="translate(351.316277, 31.435482)"><g><path d="M 11.898438 0.507812 C 15.488281 0.507812 18.441406 -0.847656 20.320312 -3.082031 C 20.53125 -3.332031 20.464844 -3.550781 20.175781 -3.773438 L 17.304688 -5.71875 C 17.03125 -5.917969 16.796875 -5.875 16.574219 -5.617188 C 15.476562 -4.402344 13.84375 -3.65625 11.910156 -3.65625 C 8.304688 -3.65625 5.734375 -6.152344 5.734375 -10.03125 C 5.734375 -13.921875 8.304688 -16.402344 11.898438 -16.402344 C 13.84375 -16.402344 15.460938 -15.660156 16.574219 -14.445312 C 16.796875 -14.183594 17.042969 -14.144531 17.304688 -14.339844 L 20.175781 -16.296875 C 20.453125 -16.507812 20.503906 -16.753906 20.269531 -17.015625 C 18.363281 -19.238281 15.4375 -20.570312 11.898438 -20.570312 C 5.601562 -20.570312 1.164062 -16.402344 1.164062 -10.03125 C 1.164062 -3.65625 5.589844 0.507812 11.898438 0.507812 Z M 11.898438 0.507812 "/></g></g></g><g fill="#606b54" fill-opacity="1"><g transform="translate(372.596825, 31.435482)"><g><path d="M 8.019531 0.507812 C 11.6875 0.507812 15.398438 -1.042969 15.398438 -5.394531 C 15.398438 -9.023438 12.707031 -10.605469 10.265625 -11.804688 C 7.925781 -12.929688 6.035156 -13.660156 6.035156 -15.125 C 6.035156 -16.273438 7.089844 -16.675781 8.460938 -16.675781 C 9.703125 -16.675781 11.21875 -16.363281 12.5625 -15.839844 C 12.890625 -15.722656 13.125 -15.855469 13.242188 -16.167969 L 14.089844 -18.898438 C 14.210938 -19.222656 14.105469 -19.460938 13.765625 -19.578125 C 11.960938 -20.191406 9.898438 -20.570312 8.332031 -20.570312 C 4.765625 -20.570312 1.398438 -18.9375 1.398438 -14.796875 C 1.398438 -11.636719 3.539062 -10.070312 5.917969 -8.816406 C 8.332031 -7.546875 10.75 -6.726562 10.75 -5.183594 C 10.75 -3.957031 9.636719 -3.394531 7.992188 -3.394531 C 6.582031 -3.394531 4.753906 -3.773438 2.9375 -4.492188 C 2.613281 -4.609375 2.363281 -4.53125 2.246094 -4.191406 L 1.265625 -1.320312 C 1.136719 -0.980469 1.253906 -0.757812 1.59375 -0.625 C 4.046875 0.195312 6.074219 0.507812 8.019531 0.507812 Z M 8.019531 0.507812 "/></g></g></g><g fill="#606b54" fill-opacity="1"><g transform="translate(389.07293, 31.435482)"><g><path d="M 11.898438 0.507812 C 15.488281 0.507812 18.441406 -0.847656 20.320312 -3.082031 C 20.53125 -3.332031 20.464844 -3.550781 20.175781 -3.773438 L 17.304688 -5.71875 C 17.03125 -5.917969 16.796875 -5.875 16.574219 -5.617188 C 15.476562 -4.402344 13.84375 -3.65625 11.910156 -3.65625 C 8.304688 -3.65625 5.734375 -6.152344 5.734375 -10.03125 C 5.734375 -13.921875 8.304688 -16.402344 11.898438 -16.402344 C 13.84375 -16.402344 15.460938 -15.660156 16.574219 -14.445312 C 16.796875 -14.183594 17.042969 -14.144531 17.304688 -14.339844 L 20.175781 -16.296875 C 20.453125 -16.507812 20.503906 -16.753906 20.269531 -17.015625 C 18.363281 -19.238281 15.4375 -20.570312 11.898438 -20.570312 C 5.601562 -20.570312 1.164062 -16.402344 1.164062 -10.03125 C 1.164062 -3.65625 5.589844 0.507812 11.898438 0.507812 Z M 11.898438 0.507812 "/></g></g></g><g fill="#606b54" fill-opacity="1"><g transform="translate(410.353479, 31.435482)"><g><path d="M 6.007812 0 C 6.359375 0 6.542969 -0.183594 6.542969 -0.535156 L 6.542969 -19.523438 C 6.542969 -19.878906 6.359375 -20.058594 6.007812 -20.058594 L 2.519531 -20.058594 C 2.167969 -20.058594 1.984375 -19.878906 1.984375 -19.523438 L 1.984375 -0.535156 C 1.984375 -0.183594 2.167969 0 2.519531 0 Z M 6.007812 0 "/></g></g></g><g fill="#606b54" fill-opacity="1"><g transform="translate(418.878753, 31.435482)"><g/></g></g><g fill="#606b54" fill-opacity="1"><g transform="translate(427.182084, 31.435482)"><g><path d="M 8.410156 0 C 8.761719 0 8.945312 -0.183594 8.945312 -0.535156 L 8.945312 -19.523438 C 8.945312 -19.878906 8.761719 -20.058594 8.410156 -20.058594 L 1.605469 -20.058594 C 1.253906 -20.058594 1.070312 -19.878906 1.070312 -19.523438 L 1.070312 -16.703125 C 1.070312 -16.363281 1.253906 -16.167969 1.605469 -16.167969 L 4.792969 -16.167969 L 4.792969 -0.535156 C 4.792969 -0.183594 4.976562 0 5.328125 0 Z M 8.410156 0 "/></g></g></g><g fill="#606b54" fill-opacity="1"><g transform="translate(438.148747, 31.435482)"><g><path d="M 1.839844 -20.058594 C 1.5 -20.058594 1.304688 -19.878906 1.304688 -19.523438 L 1.304688 -16.703125 C 1.304688 -16.363281 1.5 -16.167969 1.839844 -16.167969 L 10.109375 -16.167969 L 1.90625 -0.640625 C 1.710938 -0.261719 1.878906 0 2.285156 0 L 5.929688 0 C 6.214844 0 6.414062 -0.105469 6.542969 -0.390625 L 16 -19.433594 C 16.179688 -19.8125 16.023438 -20.058594 15.621094 -20.058594 Z M 1.839844 -20.058594 "/></g></g></g><g fill="#606b54" fill-opacity="1"><g transform="translate(455.06874, 31.435482)"><g><path d="M 8.410156 0 C 8.761719 0 8.945312 -0.183594 8.945312 -0.535156 L 8.945312 -19.523438 C 8.945312 -19.878906 8.761719 -20.058594 8.410156 -20.058594 L 1.605469 -20.058594 C 1.253906 -20.058594 1.070312 -19.878906 1.070312 -19.523438 L 1.070312 -16.703125 C 1.070312 -16.363281 1.253906 -16.167969 1.605469 -16.167969 L 4.792969 -16.167969 L 4.792969 -0.535156 C 4.792969 -0.183594 4.976562 0 5.328125 0 Z M 8.410156 0 "/></g></g></g><g fill="#606b54" fill-opacity="1"><g transform="translate(466.035403, 31.435482)"><g><path d="M 9.324219 0.507812 C 15.332031 0.507812 17.003906 -5.484375 17.003906 -10.03125 C 17.003906 -13.921875 15.761719 -20.570312 9.324219 -20.570312 C 2.898438 -20.570312 1.644531 -13.949219 1.644531 -10.03125 C 1.644531 -5.511719 3.316406 0.507812 9.324219 0.507812 Z M 9.324219 -3.316406 C 6.152344 -3.316406 5.863281 -7.027344 5.863281 -10.054688 C 5.863281 -12.835938 6.175781 -16.742188 9.324219 -16.742188 C 12.550781 -16.742188 12.773438 -12.824219 12.773438 -9.964844 C 12.773438 -7.066406 12.394531 -3.316406 9.324219 -3.316406 Z M 9.324219 -3.316406 "/></g></g></g><g fill="#606b54" fill-opacity="1"><g transform="translate(484.704841, 31.435482)"><g/></g></g><g fill="#606b54" fill-opacity="1"><g transform="translate(493.008171, 31.435482)"><g><path d="M 28.027344 -5.695312 C 28.3125 -5.695312 28.5625 -5.941406 28.5625 -6.230469 L 28.5625 -8.28125 C 28.5625 -8.582031 28.3125 -8.816406 28.027344 -8.816406 L 2.351562 -8.816406 C 2.050781 -8.816406 1.816406 -8.582031 1.816406 -8.28125 L 1.816406 -6.230469 C 1.816406 -5.941406 2.050781 -5.695312 2.351562 -5.695312 Z M 28.027344 -5.695312 "/></g></g></g><g fill="#606b54" fill-opacity="1"><g transform="translate(523.362327, 31.435482)"><g/></g></g><g fill="#606b54" fill-opacity="1"><g transform="translate(531.665658, 31.435482)"><g><path d="M 5.941406 0 C 6.28125 0 6.476562 -0.183594 6.476562 -0.535156 L 6.476562 -9.585938 L 11.546875 -3.316406 C 11.78125 -3.015625 12.054688 -3.015625 12.289062 -3.316406 L 17.394531 -9.625 L 17.394531 -0.535156 C 17.394531 -0.183594 17.589844 0 17.929688 0 L 21.328125 0 C 21.679688 0 21.863281 -0.183594 21.863281 -0.535156 L 21.863281 -19.617188 C 21.863281 -20.609375 21.171875 -20.84375 20.554688 -20.058594 L 11.910156 -8.972656 L 3.316406 -20.058594 C 2.691406 -20.871094 2.011719 -20.609375 2.011719 -19.617188 L 2.011719 -0.535156 C 2.011719 -0.183594 2.195312 0 2.546875 0 Z M 5.941406 0 "/></g></g></g><g fill="#606b54" fill-opacity="1"><g transform="translate(555.531205, 31.435482)"><g><path d="M 25.480469 -20.058594 C 25.207031 -20.058594 24.96875 -19.917969 24.867188 -19.640625 L 20.308594 -8.644531 L 15.621094 -19.941406 C 15.527344 -20.175781 15.332031 -20.359375 15.003906 -20.359375 C 14.640625 -20.359375 14.484375 -20.152344 14.390625 -19.941406 L 9.875 -8.660156 L 5.316406 -19.640625 C 5.210938 -19.917969 4.976562 -20.058594 4.703125 -20.058594 L 0.847656 -20.058594 C 0.445312 -20.058594 0.273438 -19.796875 0.445312 -19.421875 L 9.207031 0 C 9.558594 0.757812 10.210938 0.757812 10.527344 0 L 15.085938 -11.335938 L 19.65625 0 C 19.96875 0.757812 20.621094 0.757812 20.972656 0 L 29.738281 -19.421875 C 29.90625 -19.796875 29.699219 -20.058594 29.332031 -20.058594 Z M 25.480469 -20.058594 "/></g></g></g><g fill="#606b54" fill-opacity="1"><g transform="translate(585.702583, 31.435482)"><g><path d="M 6.007812 0 C 6.359375 0 6.542969 -0.183594 6.542969 -0.535156 L 6.542969 -6.765625 L 13.097656 -6.765625 C 13.453125 -6.765625 13.632812 -6.949219 13.632812 -7.300781 L 13.632812 -9.964844 C 13.632812 -10.316406 13.453125 -10.5 13.097656 -10.5 L 6.542969 -10.5 L 6.542969 -16.117188 L 14.222656 -16.117188 C 14.574219 -16.117188 14.757812 -16.3125 14.757812 -16.652344 L 14.757812 -19.523438 C 14.757812 -19.878906 14.574219 -20.058594 14.222656 -20.058594 L 2.519531 -20.058594 C 2.167969 -20.058594 1.984375 -19.878906 1.984375 -19.523438 L 1.984375 -0.535156 C 1.984375 -0.183594 2.167969 0 2.519531 0 Z M 6.007812 0 "/></g></g></g><g fill="#606b54" fill-opacity="1"><g transform="translate(601.356188, 31.435482)"><g/></g></g><g fill="#606b54" fill-opacity="1"><g transform="translate(609.659518, 31.435482)"><g><path d="M 8.410156 0 C 8.761719 0 8.945312 -0.183594 8.945312 -0.535156 L 8.945312 -19.523438 C 8.945312 -19.878906 8.761719 -20.058594 8.410156 -20.058594 L 1.605469 -20.058594 C 1.253906 -20.058594 1.070312 -19.878906 1.070312 -19.523438 L 1.070312 -16.703125 C 1.070312 -16.363281 1.253906 -16.167969 1.605469 -16.167969 L 4.792969 -16.167969 L 4.792969 -0.535156 C 4.792969 -0.183594 4.976562 0 5.328125 0 Z M 8.410156 0 "/></g></g></g><g fill="#606b54" fill-opacity="1"><g transform="translate(620.626181, 31.435482)"><g><path d="M 9.324219 0.507812 C 15.332031 0.507812 17.003906 -5.484375 17.003906 -10.03125 C 17.003906 -13.921875 15.761719 -20.570312 9.324219 -20.570312 C 2.898438 -20.570312 1.644531 -13.949219 1.644531 -10.03125 C 1.644531 -5.511719 3.316406 0.507812 9.324219 0.507812 Z M 9.324219 -3.316406 C 6.152344 -3.316406 5.863281 -7.027344 5.863281 -10.054688 C 5.863281 -12.835938 6.175781 -16.742188 9.324219 -16.742188 C 12.550781 -16.742188 12.773438 -12.824219 12.773438 -9.964844 C 12.773438 -7.066406 12.394531 -3.316406 9.324219 -3.316406 Z M 9.324219 -3.316406 "/></g></g></g><g fill="#606b54" fill-opacity="1"><g transform="translate(639.295619, 31.435482)"><g/></g></g><g fill="#606b54" fill-opacity="1"><g transform="translate(647.598949, 31.435482)"><g><path d="M 7.351562 -14.808594 C 5.707031 -14.808594 3.945312 -14.496094 2.324219 -13.972656 C 2 -13.855469 1.867188 -13.648438 1.972656 -13.296875 L 2.714844 -10.984375 C 2.820312 -10.644531 3.082031 -10.550781 3.410156 -10.683594 C 4.625 -11.167969 5.902344 -11.464844 7 -11.464844 C 8.554688 -11.464844 9.703125 -10.851562 9.703125 -9.195312 L 9.703125 -8.460938 C 8.75 -8.738281 7.785156 -8.867188 6.871094 -8.867188 C 3.722656 -8.867188 1.1875 -7.300781 1.1875 -4.230469 C 1.1875 -1.226562 3.550781 0.3125 6.136719 0.3125 C 7.628906 0.3125 9.21875 -0.195312 10.34375 -1.671875 L 10.734375 -0.457031 C 10.8125 -0.15625 11.023438 0 11.324219 0 L 13.347656 0 C 13.6875 0 13.882812 -0.183594 13.882812 -0.535156 L 13.882812 -9.3125 C 13.882812 -13.347656 10.890625 -14.808594 7.351562 -14.808594 Z M 7.273438 -2.585938 C 6.253906 -2.585938 5.355469 -3.109375 5.355469 -4.269531 C 5.355469 -5.589844 6.492188 -6.097656 7.914062 -6.097656 C 8.488281 -6.097656 9.089844 -6.007812 9.703125 -5.863281 L 9.703125 -5.171875 C 9.703125 -3.210938 8.304688 -2.585938 7.273438 -2.585938 Z M 7.273438 -2.585938 "/></g></g></g><g fill="#606b54" fill-opacity="1"><g transform="translate(663.14811, 31.435482)"><g><path d="M 18.949219 -14.808594 C 17.121094 -14.808594 15.148438 -14.011719 13.933594 -12.539062 C 13.113281 -13.988281 11.558594 -14.808594 9.914062 -14.808594 C 8.460938 -14.808594 6.933594 -14.339844 5.355469 -12.824219 L 4.960938 -14.039062 C 4.859375 -14.339844 4.675781 -14.496094 4.375 -14.496094 L 2.351562 -14.496094 C 2.011719 -14.496094 1.816406 -14.3125 1.816406 -13.960938 L 1.816406 -0.535156 C 1.816406 -0.183594 2.011719 0 2.351562 0 L 5.460938 0 C 5.796875 0 5.996094 -0.183594 5.996094 -0.535156 L 5.996094 -8.382812 C 5.996094 -10.09375 6.871094 -11.269531 8.59375 -11.269531 C 10.34375 -11.269531 10.945312 -10.070312 10.945312 -8.34375 L 10.945312 -0.535156 C 10.945312 -0.183594 11.128906 0 11.480469 0 L 14.574219 0 C 14.925781 0 15.109375 -0.183594 15.109375 -0.535156 L 15.109375 -8.382812 C 15.109375 -10.09375 16.011719 -11.269531 17.695312 -11.269531 C 19.367188 -11.269531 20.019531 -10.070312 20.019531 -8.34375 L 20.019531 -0.535156 C 20.019531 -0.183594 20.203125 0 20.554688 0 L 23.652344 0 C 24.003906 0 24.1875 -0.183594 24.1875 -0.535156 L 24.1875 -9.207031 C 24.1875 -12.40625 22.226562 -14.808594 18.949219 -14.808594 Z M 18.949219 -14.808594 "/></g></g></g></svg>