<?xml version="1.0" encoding="UTF-8"?>
<svg id="Layer_1" data-name="Layer 1" xmlns="http://www.w3.org/2000/svg" xmlns:xlink="http://www.w3.org/1999/xlink" viewBox="0 0 1135.98 188">
  <defs>
    <style>
      .cls-1 {
        fill: none;
      }

      .cls-2 {
        fill: #9fa980;
      }

      .cls-3, .cls-4, .cls-5 {
        fill: #606b54;
      }

      .cls-6 {
        clip-path: url(#clippath-1);
      }

      .cls-4 {
        font-size: 39.29px;
      }

      .cls-4, .cls-5 {
        font-family: MuktaMahee-Bold, 'Mukta Mahee';
        font-weight: 700;
      }

      .cls-7 {
        clip-path: url(#clippath);
      }

      .cls-5 {
        font-size: 44.96px;
      }
    </style>
    <clipPath id="clippath">
      <rect class="cls-1" y="0" width="26.71" height="187.78"/>
    </clipPath>
    <clipPath id="clippath-1">
      <rect class="cls-1" x="1109.3" y="0" width="26.43" height="187.78"/>
    </clipPath>
  </defs>
  <g class="cls-7">
    <path class="cls-3" d="M5.19,93.92c1.05-.86,2.07-1.77,2.97-2.78,2.03-2.26,3.72-4.81,5.07-7.55,1.35-2.74,2.33-5.64,3.05-8.65.68-2.97,1.09-5.97,1.28-8.94.42-5.94.15-11.77.08-17.26-.08-5.48-.04-10.79.11-15.78.08-2.48.19-4.89.3-7.18.07-1.13.15-2.26.19-3.34.08-1.05.15-2.1.27-3.08.22-1.99.53-3.83.94-5.45.19-.83.41-1.58.64-2.33.26-.71.45-1.43.75-2.03,1.05-2.52,2.26-4.1,3.19-5,.11-.11.23-.22.34-.3.11-.07.23-.19.3-.26.19-.15.34-.3.49-.42.26-.19.41-.26.41-.26.6-.45,1.05-.79,1.24-1.17.19-.38.15-.71-.26-.9-.38-.19-.79-.34-1.2-.49-.22-.07-.41-.15-.64-.22-.22-.04-.41-.11-.64-.15-.45-.11-.91-.19-1.39-.22-.53-.15-.98-.15-1.47-.15-.26,0-.6.07-1.02.22-.38.19-.79.42-1.24.75-.45.3-.86.72-1.28,1.17-.19.22-.42.45-.56.68-.15.22-.34.49-.49.75,0,0-.11.23-.34.6-.22.41-.49,1.02-.86,1.8-.68,1.58-1.47,3.95-2.07,6.88-.6,2.93-.9,6.5-1.02,10.41-.11,3.83-.19,8.16-.15,12.81.04,4.66.15,9.66.38,14.85.23,5.19.49,10.48.15,15.75-.34,5.26-1.35,10.52-3.68,15.18-1.13,2.33-2.56,4.51-4.24,6.39-1.05,1.16-2.26,2.21-3.49,3.12l-.04.04c-.34.26-.64.56-.82.94-.27.53-.42,1.09-.38,1.66,0,.56.11,1.13.38,1.65.19.38.48.71.82.94l.04.04c1.28.9,2.44,1.95,3.49,3.12,1.69,1.88,3.12,4.02,4.24,6.39,2.29,4.66,3.34,9.92,3.68,15.18.34,5.3.08,10.6-.15,15.75-.22,5.18-.38,10.18-.38,14.84-.04,4.66.04,8.95.15,12.82.11,3.91.42,7.44,1.02,10.41.56,2.93,1.39,5.3,2.07,6.88.38.79.64,1.39.86,1.81.22.41.34.6.34.6.15.27.3.49.49.75.19.23.38.45.56.68.41.45.79.86,1.28,1.17.45.3.86.56,1.24.75.42.15.76.23,1.02.23.49,0,.98,0,1.47-.08.48-.07.94-.15,1.39-.22.22-.04.45-.11.64-.15.23-.07.45-.15.64-.22.41-.15.83-.3,1.2-.49.41-.19.45-.53.26-.9-.19-.38-.64-.71-1.24-1.17,0,0-.15-.07-.41-.26-.15-.11-.3-.23-.49-.42-.11-.07-.19-.15-.3-.26-.11-.08-.22-.19-.34-.3-.94-.9-2.18-2.48-3.19-5-.3-.6-.49-1.31-.75-2.03-.23-.75-.45-1.5-.64-2.33-.38-1.65-.71-3.49-.94-5.45-.11-.98-.19-2.03-.27-3.08-.07-1.09-.15-2.22-.19-3.34-.11-2.29-.22-4.7-.3-7.18-.15-4.96-.22-10.26-.11-15.78.07-5.49.34-11.32-.08-17.26-.19-2.97-.6-5.97-1.28-8.94-.71-2.97-1.69-5.9-3.05-8.65-1.31-2.74-3.01-5.3-5.07-7.55-.9-1.02-1.92-1.96-2.97-2.78v-.23Z"/>
  </g>
  <g class="cls-6">
    <path class="cls-3" d="M1130.82,93.92c-1.05-.86-2.07-1.77-2.97-2.78-2.03-2.26-3.72-4.81-5.07-7.55s-2.33-5.64-3.05-8.65c-.68-2.97-1.09-5.97-1.28-8.94-.41-5.94-.15-11.77-.07-17.26.07-5.48.04-10.79-.11-15.78-.08-2.48-.19-4.89-.3-7.18-.07-1.13-.15-2.26-.19-3.34-.07-1.05-.15-2.1-.26-3.08-.23-1.99-.53-3.83-.94-5.45-.19-.83-.41-1.58-.64-2.33-.26-.71-.45-1.43-.75-2.03-1.05-2.52-2.26-4.1-3.19-5-.11-.11-.23-.22-.34-.3-.11-.07-.23-.19-.3-.26-.19-.15-.34-.3-.49-.42-.26-.19-.41-.26-.41-.26-.6-.45-1.05-.79-1.24-1.17s-.15-.71.26-.9c.38-.19.79-.34,1.2-.49.22-.07.42-.15.64-.22.22-.04.41-.11.64-.15.45-.11.9-.19,1.39-.22.53-.15.97-.15,1.46-.15.26,0,.6.07,1.02.22.38.19.79.42,1.24.75.45.3.86.72,1.28,1.17.19.22.42.45.57.68.15.22.33.49.48.75,0,0,.11.23.34.6.23.41.49,1.02.86,1.8.68,1.58,1.47,3.95,2.07,6.88.6,2.93.9,6.5,1.02,10.41.11,3.83.19,8.16.15,12.81-.04,4.66-.15,9.66-.38,14.85-.23,5.19-.49,10.48-.15,15.75.34,5.26,1.35,10.52,3.68,15.18,1.13,2.33,2.56,4.51,4.24,6.39,1.06,1.16,2.26,2.21,3.5,3.12l.04.04c.34.26.64.56.83.94.26.53.41,1.09.38,1.66,0,.56-.11,1.13-.38,1.65-.19.38-.49.71-.83.94l-.04.04c-1.28.9-2.44,1.95-3.5,3.12-1.69,1.88-3.11,4.02-4.24,6.39-2.29,4.66-3.34,9.92-3.68,15.18-.34,5.3-.08,10.6.15,15.75.22,5.18.38,10.18.38,14.84.04,4.66-.04,8.95-.15,12.82-.11,3.91-.41,7.44-1.02,10.41-.56,2.93-1.39,5.3-2.07,6.88-.38.79-.64,1.39-.86,1.81-.22.41-.34.6-.34.6-.15.27-.3.49-.48.75-.19.23-.38.45-.57.68-.41.45-.79.86-1.28,1.17-.45.3-.86.56-1.24.75-.42.15-.76.23-1.02.23-.49,0-.98,0-1.46-.08-.49-.07-.94-.15-1.39-.22-.23-.04-.45-.11-.64-.15-.22-.07-.45-.15-.64-.22-.41-.15-.83-.3-1.2-.49-.41-.19-.45-.53-.26-.9s.64-.71,1.24-1.17c0,0,.15-.07.41-.26.15-.11.3-.23.49-.42.11-.07.19-.15.3-.26.11-.08.22-.19.34-.3.94-.9,2.18-2.48,3.19-5,.3-.6.49-1.31.75-2.03.23-.75.45-1.5.64-2.33.38-1.65.71-3.49.94-5.45.11-.98.19-2.03.26-3.08.07-1.09.15-2.22.19-3.34.11-2.29.22-4.7.3-7.18.15-4.96.22-10.26.11-15.78-.07-5.49-.33-11.32.08-17.26.19-2.97.6-5.97,1.28-8.94.71-2.97,1.69-5.9,3.05-8.65,1.31-2.74,3.01-5.3,5.07-7.55.9-1.02,1.92-1.96,2.97-2.78v-.23Z"/>
  </g>
  <path class="cls-2" d="M87.18,145.16h-23.83c-1.08,0-1.63-.5-1.63-1.5v-5.38c0-1,.54-1.5,1.63-1.5h6.85V63.89h-6.85c-1.08,0-1.63-.5-1.63-1.5v-5.38c0-1,.54-1.5,1.63-1.5h13.85c2.25,0,3.38,1.04,3.38,3.13v78.15h6.6c1.08,0,1.63.5,1.63,1.5v5.38c0,1-.54,1.5-1.63,1.5Z"/>
  <path class="cls-2" d="M151.72,137.31c-5.82,5.82-13.27,8.73-22.33,8.73s-16.52-2.89-22.35-8.67c-5.82-5.79-8.73-13.49-8.73-23.1s2.95-17.25,8.85-22.92c5.92-5.67,13.34-8.5,22.29-8.5s16.34,2.85,22.21,8.56c5.88,5.71,8.81,13.33,8.81,22.85s-2.92,17.21-8.75,23.04ZM108.78,114.33c0,6.82,1.99,12.35,5.98,16.6,4,4.24,8.89,6.35,14.67,6.35s10.69-2.11,14.69-6.35c4-4.25,6-9.78,6-16.6s-2.02-12.32-6.06-16.48c-4.03-4.17-8.88-6.25-14.54-6.25s-10.54,2.08-14.63,6.25c-4.07,4.16-6.1,9.65-6.1,16.48Z"/>
  <path class="cls-2" d="M198.8,174.37c-4.17,0-7.31-.29-9.44-.88-2.11-.58-3.81-1.1-5.1-1.56-1.29-.45-2.4-.9-3.31-1.35s-1.79-.94-2.63-1.44c-3.66-2.42-5.02-4.17-4.1-5.25l3.23-4.63c.5-.75,1.21-.79,2.13-.13.08,0,.35.19.81.56s.92.73,1.38,1.06,1.08.73,1.88,1.19,1.69.88,2.69,1.25,2.08.73,3.25,1.06c2.73.75,5.77,1.13,9.1,1.13,6,0,10.8-1.44,14.42-4.31,3.63-2.88,5.44-7.39,5.44-13.54v-14.23c-1.5,3.49-3.98,6.48-7.44,8.98-3.45,2.5-7.75,3.75-12.92,3.75-8.49,0-15.29-2.95-20.42-8.85-5.11-5.92-7.67-13.57-7.67-22.98s2.59-16.98,7.79-22.73c5.21-5.75,11.97-8.63,20.29-8.63,5.17,0,9.51,1.19,13.04,3.56,3.54,2.38,6.1,5.27,7.69,8.69h.25l-.13-9.88c0-1,.5-1.5,1.5-1.5h14.73c1,0,1.5.5,1.5,1.5v5.38c0,1-.5,1.5-1.5,1.5h-6.75v55.44c0,8.9-2.73,15.59-8.19,20.08-5.45,4.5-12.62,6.75-21.52,6.75ZM180.32,114.39c0,6.86,1.83,12.4,5.5,16.6,3.67,4.2,8.24,6.29,13.73,6.29s10.05-2.07,13.67-6.23c3.63-4.17,5.44-9.74,5.44-16.73s-1.81-12.53-5.44-16.6c-3.61-4.08-8.17-6.13-13.67-6.13s-10.06,2.08-13.73,6.25c-3.67,4.16-5.5,9.67-5.5,16.54Z"/>
  <path class="cls-2" d="M271.83,145.16h-23.83c-1.08,0-1.63-.5-1.63-1.5v-5.38c0-1,.54-1.5,1.63-1.5h6.85v-44.69h-6.85c-1.08,0-1.63-.5-1.63-1.5v-5.38c0-1,.54-1.5,1.63-1.5h15.73c1,0,1.5.5,1.5,1.5v51.56h6.6c1.08,0,1.63.5,1.63,1.5v5.38c0,1-.54,1.5-1.63,1.5ZM264.79,65.26c1.38,1.41,2.06,3.06,2.06,4.98s-.69,3.54-2.06,4.88-3.02,2-4.94,2-3.56-.67-4.94-2-2.06-2.96-2.06-4.88.69-3.57,2.06-4.98c1.38-1.42,3.02-2.13,4.94-2.13s3.56.71,4.94,2.13Z"/>
  <path class="cls-2" d="M339.89,130.68c.48.42.73.81.73,1.19s-.19.88-.56,1.5c-.36.63-1.15,1.56-2.35,2.81-1.21,1.24-2.88,2.65-5,4.23s-4.88,2.92-8.25,4c-3.36,1.08-6.96,1.63-10.79,1.63-8.74,0-16.04-2.86-21.92-8.6-5.86-5.75-8.79-13.47-8.79-23.17s2.93-17.35,8.79-22.98c5.88-5.63,13.05-8.44,21.54-8.44s14.9,3.08,19.23,9.25h.13l-.13-6.88c0-1.08.54-1.63,1.63-1.63h4.75c1,0,1.5.54,1.5,1.63v21.23c0,1-.5,1.5-1.5,1.5h-5.75c-1,0-1.5-.5-1.5-1.5v-2.13c-.08-2.98-1.79-5.85-5.13-8.6-3.32-2.75-7.54-4.13-12.67-4.13s-9.81,2.04-14.06,6.13c-4.24,4.07-6.35,9.63-6.35,16.67s2.07,12.6,6.23,16.73c4.17,4.11,8.83,6.17,14,6.17s9.55-1.09,13.17-3.29c3.63-2.21,6.06-4.35,7.31-6.44.58-1,1.29-1.13,2.13-.38l3.63,3.5Z"/>
  <path class="cls-2" d="M419.41,145.16h-28.21c-1.08,0-1.63-.5-1.63-1.5v-5.38c0-1,.54-1.5,1.63-1.5h6.85v-44.69h-7.1c-1.08,0-1.63-.5-1.63-1.5v-5.38c0-1,.54-1.5,1.63-1.5h7.1v-7.73c0-6.92,1.77-12.18,5.31-15.79,3.54-3.63,8.47-5.44,14.79-5.44,4.67,0,8.86,1.67,12.6,5,.5.42.75.81.75,1.19s-.13.69-.38.94l-2.98,3.85c-.75.75-1.46.83-2.13.25-2-1.57-4.5-2.35-7.5-2.35s-5.44,1.06-7.31,3.19c-1.86,2.11-2.79,5.21-2.79,9.29v7.6h15.98c1.08,0,1.63.5,1.63,1.5v5.38c0,1-.54,1.5-1.63,1.5h-15.98v44.69h10.98c1,0,1.5.5,1.5,1.5v5.38c0,1-.5,1.5-1.5,1.5Z"/>
  <path class="cls-2" d="M491.06,137.31c-5.82,5.82-13.27,8.73-22.33,8.73s-16.52-2.89-22.35-8.67c-5.82-5.79-8.73-13.49-8.73-23.1s2.95-17.25,8.85-22.92c5.92-5.67,13.34-8.5,22.29-8.5s16.34,2.85,22.21,8.56c5.88,5.71,8.81,13.33,8.81,22.85s-2.92,17.21-8.75,23.04ZM448.12,114.33c0,6.82,1.99,12.35,5.98,16.6,4,4.24,8.89,6.35,14.67,6.35s10.69-2.11,14.69-6.35c4-4.25,6-9.78,6-16.6s-2.02-12.32-6.06-16.48c-4.03-4.17-8.88-6.25-14.54-6.25s-10.54,2.08-14.63,6.25c-4.07,4.16-6.1,9.65-6.1,16.48Z"/>
  <path class="cls-2" d="M534.89,145.16h-23.83c-1.08,0-1.63-.5-1.63-1.5v-5.38c0-1,.54-1.5,1.63-1.5h6.85v-44.69h-6.85c-1.08,0-1.63-.5-1.63-1.5v-5.38c0-1,.54-1.5,1.63-1.5h14.6c1.08,0,1.63.5,1.63,1.5v15.6h.38c.25-1.32,1.11-3.15,2.6-5.48,1.5-2.33,3.15-4.27,4.94-5.81s4.38-2.94,7.75-4.19,7.18-1.88,11.42-1.88c1.08,0,1.63.54,1.63,1.63v6.63c0,1.08-.54,1.63-1.63,1.63h-2.63c-7.16,0-12.85,2.29-17.1,6.88-4.24,4.57-6.35,9.77-6.35,15.6v20.96h6.6c1.08,0,1.63.5,1.63,1.5v5.38c0,1-.54,1.5-1.63,1.5Z"/>
  <path class="cls-2" d="M628.78,146.03c-5.57,0-10.02-1.04-13.35-3.13s-5.42-4.04-6.25-5.88h-.25c.17,4.08.25,6.25.25,6.5,0,1.08-.58,1.63-1.75,1.63h-4.23c-1.08,0-1.63-.54-1.63-1.63v-18.73c0-1.08.54-1.63,1.63-1.63h4.85c1.17,0,1.75.54,1.75,1.63v2.5c.83,2.5,2.58,4.79,5.25,6.88,3.17,2.49,7.11,3.73,11.85,3.73,9.32,0,13.98-3.24,13.98-9.73,0-2.25-1.29-4.06-3.88-5.44-2.57-1.38-5.71-2.51-9.42-3.42-3.7-.92-7.38-1.96-11.04-3.13s-6.79-3.06-9.38-5.69c-2.57-2.63-3.85-5.93-3.85-9.92,0-5.42,1.95-9.73,5.85-12.94,3.92-3.21,8.91-4.81,14.98-4.81,8.25,0,14.16,2.42,17.73,7.25h.25c-.17-3-.25-4.54-.25-4.63,0-1.08.54-1.63,1.63-1.63h4c1.08,0,1.63.54,1.63,1.63v17.35c0,1.08-.54,1.63-1.63,1.63h-4.88c-1.17,0-1.75-.54-1.75-1.63v-1.75c0-2.23-1.31-4.46-3.94-6.67-2.61-2.21-6-3.31-10.17-3.31s-7.4.88-9.73,2.63-3.5,4.02-3.5,6.81,1.31,4.94,3.94,6.48,5.8,2.75,9.54,3.63c3.75.88,7.49,1.85,11.23,2.94,3.75,1.08,6.94,2.88,9.56,5.38,2.63,2.49,3.94,5.94,3.94,10.35s-1.9,8.31-5.69,11.69c-3.78,3.36-9.54,5.04-17.29,5.04Z"/>
  <path class="cls-2" d="M689.58,143.78c-1.33,0-2.42-1.04-3.25-3.13l-19.1-48.56h-6.85c-1,0-1.5-.5-1.5-1.5v-5.38c0-1,.5-1.5,1.5-1.5h22.6c1.07,0,1.6.5,1.6,1.5v5.38c0,1-.54,1.5-1.6,1.5h-5.13l16.1,42.33h.25l14.98-42.33h-5.63c-1,0-1.5-.5-1.5-1.5v-5.38c0-1,.5-1.5,1.5-1.5h23.23c1,0,1.5.5,1.5,1.5v5.38c0,1-.5,1.5-1.5,1.5h-7l-22.21,61.06c-2.75,7.4-5.6,12.78-8.56,16.15-2.96,3.38-7,5.06-12.13,5.06s-9.49-1.62-13.15-4.85c-.83-.83-.96-1.58-.38-2.25l3.1-4c.75-.58,1.5-.63,2.25-.13,2,1.58,4.38,2.38,7.13,2.38s5.01-.94,6.79-2.81c1.79-1.88,3.52-5.1,5.19-9.67l3.38-9.25h-1.63Z"/>
  <path class="cls-2" d="M763.12,146.03c-5.57,0-10.02-1.04-13.35-3.13s-5.42-4.04-6.25-5.88h-.25c.17,4.08.25,6.25.25,6.5,0,1.08-.58,1.63-1.75,1.63h-4.23c-1.08,0-1.63-.54-1.63-1.63v-18.73c0-1.08.54-1.63,1.63-1.63h4.85c1.17,0,1.75.54,1.75,1.63v2.5c.83,2.5,2.58,4.79,5.25,6.88,3.17,2.49,7.11,3.73,11.85,3.73,9.32,0,13.98-3.24,13.98-9.73,0-2.25-1.29-4.06-3.88-5.44-2.57-1.38-5.71-2.51-9.42-3.42-3.7-.92-7.38-1.96-11.04-3.13s-6.79-3.06-9.38-5.69c-2.57-2.63-3.85-5.93-3.85-9.92,0-5.42,1.95-9.73,5.85-12.94,3.92-3.21,8.91-4.81,14.98-4.81,8.25,0,14.16,2.42,17.73,7.25h.25c-.17-3-.25-4.54-.25-4.63,0-1.08.54-1.63,1.63-1.63h4c1.08,0,1.63.54,1.63,1.63v17.35c0,1.08-.54,1.63-1.63,1.63h-4.88c-1.17,0-1.75-.54-1.75-1.63v-1.75c0-2.23-1.31-4.46-3.94-6.67-2.61-2.21-6-3.31-10.17-3.31s-7.4.88-9.73,2.63-3.5,4.02-3.5,6.81,1.31,4.94,3.94,6.48,5.8,2.75,9.54,3.63c3.75.88,7.49,1.85,11.23,2.94,3.75,1.08,6.94,2.88,9.56,5.38,2.63,2.49,3.94,5.94,3.94,10.35s-1.9,8.31-5.69,11.69c-3.78,3.36-9.54,5.04-17.29,5.04Z"/>
  <path class="cls-2" d="M837.77,138.78c.33.33.5.69.5,1.06s-.25.81-.75,1.31c-3.66,3.25-8.25,4.88-13.79,4.88s-10.06-1.8-13.6-5.42c-3.54-3.63-5.31-8.9-5.31-15.81v-32.71h-6.98c-1.17,0-1.75-.54-1.75-1.63v-5.13c0-1.08.58-1.63,1.75-1.63h6.98v-12.6c0-1.17.58-1.75,1.75-1.75h7c1.08,0,1.63.58,1.63,1.75v12.6h15.85c1.17,0,1.75.54,1.75,1.63v5.13c0,1.08-.58,1.63-1.75,1.63h-15.85v32.46c0,4.17.93,7.31,2.79,9.44,1.88,2.11,4.38,3.17,7.5,3.17s5.48-.78,7.06-2.35c.83-.75,1.58-.71,2.25.13l2.98,3.85Z"/>
  <path class="cls-2" d="M901.71,115.7h-44.96c.33,6.91,2.51,12.23,6.54,15.98,4.04,3.74,8.6,5.6,13.69,5.6s9.43-1.07,13.04-3.23c3.63-2.17,6.06-4.29,7.31-6.38.67-.83,1.42-.96,2.25-.38l3.38,3.38c.5.5.75.94.75,1.31s-.19.85-.56,1.44-1.15,1.5-2.31,2.75c-1.17,1.24-2.81,2.65-4.94,4.23s-4.88,2.92-8.25,4c-3.36,1.08-6.96,1.63-10.79,1.63-8.74,0-16.04-2.86-21.92-8.6-5.86-5.75-8.79-13.47-8.79-23.17s2.91-17.35,8.73-22.98c5.83-5.63,12.97-8.44,21.42-8.44s15.08,2.73,19.92,8.19,7.25,12.81,7.25,22.04v1c0,1.08-.58,1.63-1.75,1.63ZM893.09,108.08c-.25-5.15-1.88-9.27-4.88-12.35-2.99-3.08-6.98-4.63-11.98-4.63s-9.29,1.42-12.88,4.25c-3.57,2.83-5.69,7.08-6.35,12.73h36.08Z"/>
  <path class="cls-2" d="M1018.44,145.16h-11.85c-1.92,0-3.31-.4-4.19-1.19s-1.31-2.15-1.31-4.06v-32.83c0-4.82-1.15-8.56-3.44-11.23s-5.68-4-10.17-4c-6.58,0-11.75,2.88-15.5,8.63.5,1.49.75,3.15.75,4.98v31.33h7c1,0,1.5.5,1.5,1.5v5.38c0,1-.5,1.5-1.5,1.5h-23.85c-1.08,0-1.63-.5-1.63-1.5v-5.38c0-1,.54-1.5,1.63-1.5h6.63v-29.71c0-4.82-1.17-8.56-3.5-11.23s-5.74-4-10.23-4c-3.42,0-6.02.52-7.81,1.56s-3.15,1.96-4.06,2.75-1.66,1.56-2.23,2.31c-1,1.33-1.83,2.7-2.5,4.1v34.21h6.1c1,0,1.5.5,1.5,1.5v5.38c0,1-.5,1.5-1.5,1.5h-23.33c-1.08,0-1.63-.5-1.63-1.5v-5.38c0-1,.54-1.5,1.63-1.5h6.85v-44.69h-6.85c-1.08,0-1.63-.5-1.63-1.5v-5.38c0-1,.54-1.5,1.63-1.5h12.23c1.42,0,2.44.27,3.06.81s.94,1.52.94,2.94l-.25,6.25h.38c4.32-7.25,11.03-10.88,20.15-10.88s15.35,3.46,18.69,10.38c4.73-6.92,11.43-10.38,20.08-10.38,6.67,0,11.84,1.96,15.54,5.88,3.71,3.92,5.56,9.2,5.56,15.85l.13,32.21h7c1.08,0,1.63.5,1.63,1.5v5.38c0,1-.54,1.5-1.63,1.5Z"/>
  <path class="cls-2" d="M1057.26,146.03c-5.57,0-10.02-1.04-13.35-3.13s-5.42-4.04-6.25-5.88h-.25c.17,4.08.25,6.25.25,6.5,0,1.08-.58,1.63-1.75,1.63h-4.23c-1.08,0-1.63-.54-1.63-1.63v-18.73c0-1.08.54-1.63,1.63-1.63h4.85c1.17,0,1.75.54,1.75,1.63v2.5c.83,2.5,2.58,4.79,5.25,6.88,3.17,2.49,7.11,3.73,11.85,3.73,9.32,0,13.98-3.24,13.98-9.73,0-2.25-1.29-4.06-3.88-5.44-2.57-1.38-5.71-2.51-9.42-3.42-3.7-.92-7.38-1.96-11.04-3.13s-6.79-3.06-9.38-5.69c-2.57-2.63-3.85-5.93-3.85-9.92,0-5.42,1.95-9.73,5.85-12.94,3.92-3.21,8.91-4.81,14.98-4.81,8.25,0,14.16,2.42,17.73,7.25h.25c-.17-3-.25-4.54-.25-4.63,0-1.08.54-1.63,1.63-1.63h4c1.08,0,1.63.54,1.63,1.63v17.35c0,1.08-.54,1.63-1.63,1.63h-4.88c-1.17,0-1.75-.54-1.75-1.63v-1.75c0-2.23-1.31-4.46-3.94-6.67-2.61-2.21-6-3.31-10.17-3.31s-7.4.88-9.73,2.63-3.5,4.02-3.5,6.81,1.31,4.94,3.94,6.48,5.8,2.75,9.54,3.63c3.75.88,7.49,1.85,11.23,2.94,3.75,1.08,6.94,2.88,9.56,5.38,2.63,2.49,3.94,5.94,3.94,10.35s-1.9,8.31-5.69,11.69c-3.78,3.36-9.54,5.04-17.29,5.04Z"/>
  <path class="cls-3" d="M209.71,36.82c.45,0,.71-.24.71-.71V15.33h5.57c.47,0,.71-.26.71-.71v-3.83c0-.47-.24-.71-.71-.71h-17.28c-.45,0-.71.24-.71.71v3.83c0,.45.27.71.71.71h5.57v20.78c0,.47.26.71.71.71h4.7Z"/>
  <path class="cls-3" d="M222.54,16.08c1.81,0,3.19-1.36,3.19-3.19s-1.38-3.19-3.19-3.19-3.17,1.41-3.17,3.19,1.4,3.19,3.17,3.19ZM224.65,36.82c.45,0,.71-.24.71-.71v-17.9c0-.47-.27-.71-.71-.71h-4.15c-.45,0-.71.24-.71.71v17.9c0,.47.26.71.71.71h4.15Z"/>
  <path class="cls-3" d="M253.08,17.08c-2.44,0-5.07,1.06-6.69,3.03-1.09-1.93-3.17-3.03-5.36-3.03-1.94,0-3.97.63-6.08,2.65l-.53-1.62c-.14-.4-.38-.61-.78-.61h-2.7c-.45,0-.71.24-.71.71v17.9c0,.47.26.71.71.71h4.15c.45,0,.71-.24.71-.71v-10.46c0-2.28,1.17-3.85,3.46-3.85s3.14,1.6,3.14,3.9v10.41c0,.47.24.71.71.71h4.13c.47,0,.71-.24.71-.71v-10.46c0-2.28,1.2-3.85,3.45-3.85s3.1,1.6,3.1,3.9v10.41c0,.47.24.71.71.71h4.13c.47,0,.71-.24.71-.71v-11.56c0-4.27-2.61-7.47-6.98-7.47Z"/>
  <path class="cls-3" d="M281.22,36.82c.45,0,.7-.24.7-.71v-14.56l14.97,15.27c1.03,1.03,1.9.61,1.9-.63V10.79c0-.47-.27-.71-.71-.71h-4.48c-.47,0-.71.24-.71.71v14.21l-15.11-15.06c-.96-.91-1.74-.49-1.74.75v25.42c0,.47.24.71.71.71h4.47Z"/>
  <path class="cls-3" d="M312.77,17.08c-5.59,0-9.7,3.9-9.7,10.08s4.51,10.08,9.99,10.08c2.68,0,5.45-.94,7.8-2.82.44-.35.51-.71.19-1.03l-2.09-2.63c-.3-.32-.57-.33-.96-.06-1.49,1.17-3.19,1.8-4.77,1.8-2.44,0-4.7-1.52-4.82-4.51h12.99c.63,0,.82-.26.82-.91,0-6.11-3.83-10.01-9.45-10.01ZM312.91,21.42c1.6,0,3.27.77,3.71,2.96h-7.87c.63-2.23,2.61-2.96,4.16-2.96Z"/>
  <path class="cls-3" d="M332.66,37.24c.96,0,1.98-.07,3.08-.38.43-.13.61-.47.48-.91l-.77-2.93c-.12-.43-.44-.59-.89-.47-.44.12-.88.16-1.22.16-1.08,0-1.8-.52-1.8-1.79V10.79c0-.47-.24-.71-.71-.71h-4.13c-.47,0-.71.24-.71.71v20.56c0,3.85,2.7,5.89,6.65,5.89Z"/>
  <path class="cls-3" d="M345.49,37.24c3.78,0,7.82-1.43,7.82-6.27,0-3.24-2.47-4.74-4.79-5.77-2.16-.97-4.18-1.52-4.18-2.65,0-.79.7-1.11,1.74-1.11,1.13,0,2.71.38,4.2.89.43.16.78-.03.9-.47l.89-3.01c.16-.45-.05-.75-.45-.87-1.92-.59-3.94-.91-5.51-.91-3.69,0-7.28,1.76-7.28,6.2,0,2.75,2,4.25,4.11,5.36,2.32,1.2,4.81,1.83,4.81,2.89s-.92,1.44-2.21,1.44-2.96-.33-4.63-.85c-.47-.14-.75,0-.91.42l-.99,2.99c-.14.4,0,.77.51.89,2.21.54,4.13.82,5.97.82Z"/>
  <path class="cls-3" d="M366.85,37.24c6.11,0,10.55-4.18,10.55-10.08s-4.44-10.08-10.55-10.08-10.48,4.18-10.48,10.08,4.44,10.08,10.48,10.08ZM366.85,32.41c-2.96,0-4.95-2.28-4.95-5.26s1.99-5.26,4.95-5.26,5.02,2.26,5.02,5.26-1.97,5.26-5.02,5.26Z"/>
  <path class="cls-3" d="M392.91,17.08c-2.25,0-4.69.82-6.81,2.8l-.56-1.78c-.14-.4-.38-.61-.78-.61h-2.7c-.45,0-.71.24-.71.71v17.9c0,.47.26.71.71.71h4.15c.45,0,.71-.24.71-.71v-10.08c0-2.47,1.67-4.21,4.01-4.21s3.66,1.83,3.66,4.2v10.1c0,.47.24.71.71.71h4.13c.47,0,.71-.24.71-.71v-11.09c0-3.46-1.44-7.94-7.22-7.94Z"/>
  <path class="cls-3" d="M450.8,29.23c.38,0,.71-.33.71-.71v-2.73c0-.4-.33-.71-.71-.71h-34.23c-.4,0-.71.31-.71.71v2.73c0,.39.31.71.71.71h34.23Z"/>
  <path class="cls-3" d="M480.85,37.5c4.79,0,8.72-1.81,11.23-4.79.28-.33.19-.63-.19-.92l-3.83-2.59c-.36-.27-.68-.21-.97.14-1.46,1.62-3.64,2.61-6.22,2.61-4.81,0-8.23-3.33-8.23-8.5s3.43-8.49,8.22-8.49c2.59,0,4.75.99,6.23,2.61.3.35.63.4.97.14l3.83-2.61c.37-.28.44-.61.13-.96-2.54-2.96-6.44-4.74-11.16-4.74-8.4,0-14.31,5.56-14.31,14.05s5.9,14.05,14.31,14.05Z"/>
  <path class="cls-3" d="M504.05,37.5c4.89,0,9.84-2.07,9.84-7.87,0-4.84-3.59-6.95-6.84-8.55-3.12-1.5-5.64-2.47-5.64-4.43,0-1.53,1.41-2.07,3.23-2.07,1.66,0,3.68.42,5.47,1.11.44.16.75-.02.91-.44l1.13-3.64c.16-.43.02-.75-.43-.91-2.41-.82-5.16-1.32-7.24-1.32-4.76,0-9.24,2.18-9.24,7.7,0,4.21,2.85,6.3,6.03,7.97,3.22,1.69,6.44,2.79,6.44,4.84,0,1.64-1.48,2.39-3.68,2.39-1.88,0-4.32-.51-6.74-1.46-.43-.16-.77-.05-.92.4l-1.31,3.83c-.17.45-.02.75.44.93,3.27,1.09,5.97,1.51,8.57,1.51Z"/>
  <path class="cls-3" d="M531.19,37.5c4.79,0,8.72-1.81,11.23-4.79.28-.33.19-.63-.19-.92l-3.83-2.59c-.36-.27-.68-.21-.97.14-1.46,1.62-3.64,2.61-6.22,2.61-4.81,0-8.23-3.33-8.23-8.5s3.43-8.49,8.22-8.49c2.59,0,4.75.99,6.23,2.61.3.35.63.4.97.14l3.83-2.61c.37-.28.44-.61.13-.96-2.54-2.96-6.44-4.74-11.16-4.74-8.4,0-14.31,5.56-14.31,14.05s5.9,14.05,14.31,14.05Z"/>
  <path class="cls-3" d="M551.71,36.82c.47,0,.71-.24.71-.71V10.79c0-.47-.24-.71-.71-.71h-4.65c-.47,0-.71.24-.71.71v25.32c0,.47.24.71.71.71h4.65Z"/>
  <path class="cls-3" d="M577.35,36.82c.47,0,.71-.24.71-.71V10.79c0-.47-.24-.71-.71-.71h-9.07c-.47,0-.71.24-.71.71v3.76c0,.45.24.71.71.71h4.25v20.84c0,.47.24.71.71.71h4.11Z"/>
  <path class="cls-3" d="M583.21,10.08c-.45,0-.71.24-.71.71v3.76c0,.45.26.71.71.71h11.03l-10.94,20.7c-.26.51-.04.85.51.85h4.86c.38,0,.65-.14.82-.52l12.61-25.39c.24-.51.03-.83-.51-.83h-18.38Z"/>
  <path class="cls-3" d="M614.53,36.82c.47,0,.71-.24.71-.71V10.79c0-.47-.24-.71-.71-.71h-9.07c-.47,0-.71.24-.71.71v3.76c0,.45.24.71.71.71h4.25v20.84c0,.47.24.71.71.71h4.11Z"/>
  <path class="cls-3" d="M630.38,37.5c8.01,0,10.24-7.99,10.24-14.05,0-5.19-1.66-14.05-10.24-14.05s-10.24,8.83-10.24,14.05c0,6.03,2.23,14.05,10.24,14.05ZM630.38,32.4c-4.23,0-4.61-4.95-4.61-8.98,0-3.71.42-8.92,4.61-8.92s4.6,5.22,4.6,9.04-.51,8.86-4.6,8.86Z"/>
  <path class="cls-3" d="M691.28,29.23c.38,0,.71-.33.71-.71v-2.73c0-.4-.33-.71-.71-.71h-34.23c-.4,0-.71.31-.71.71v2.73c0,.39.31.71.71.71h34.23Z"/>
  <path class="cls-3" d="M713.37,36.82c.45,0,.71-.24.71-.71v-12.07l6.76,8.36c.31.4.68.4.99,0l6.81-8.41v12.12c0,.47.26.71.71.71h4.53c.47,0,.71-.24.71-.71V10.66c0-1.32-.92-1.64-1.74-.59l-11.53,14.78-11.46-14.78c-.83-1.08-1.74-.73-1.74.59v25.44c0,.47.24.71.71.71h4.53Z"/>
  <path class="cls-3" d="M771.24,10.08c-.36,0-.68.19-.82.56l-6.08,14.66-6.25-15.06c-.13-.31-.39-.56-.82-.56-.48,0-.69.28-.82.56l-6.02,15.04-6.08-14.64c-.14-.37-.45-.56-.82-.56h-5.14c-.54,0-.77.35-.54.85l11.68,25.9c.47,1.01,1.34,1.01,1.76,0l6.08-15.11,6.09,15.11c.42,1.01,1.29,1.01,1.76,0l11.69-25.9c.22-.5-.05-.85-.54-.85h-5.14Z"/>
  <path class="cls-3" d="M785.51,36.82c.47,0,.71-.24.71-.71v-8.31h8.74c.47,0,.71-.24.71-.71v-3.55c0-.47-.24-.71-.71-.71h-8.74v-7.49h10.24c.47,0,.71-.26.71-.71v-3.83c0-.47-.24-.71-.71-.71h-15.6c-.47,0-.71.24-.71.71v25.32c0,.47.24.71.71.71h4.65Z"/>
  <path class="cls-3" d="M888.11,17.08c-2.44,0-5.07,1.06-6.69,3.03-1.09-1.93-3.17-3.03-5.36-3.03-1.94,0-3.97.63-6.08,2.65l-.53-1.62c-.14-.4-.38-.61-.78-.61h-2.7c-.45,0-.71.24-.71.71v17.9c0,.47.26.71.71.71h4.15c.45,0,.71-.24.71-.71v-10.46c0-2.28,1.17-3.85,3.46-3.85s3.14,1.6,3.14,3.9v10.41c0,.47.24.71.71.71h4.13c.47,0,.71-.24.71-.71v-10.46c0-2.28,1.2-3.85,3.45-3.85s3.1,1.6,3.1,3.9v10.41c0,.47.24.71.71.71h4.13c.47,0,.71-.24.71-.71v-11.56c0-4.27-2.61-7.47-6.98-7.47Z"/>
  <text class="cls-5" transform="translate(808.17 36.98) scale(1.09 1)"><tspan x="0" y="0">2</tspan></text>
  <text class="cls-4" transform="translate(839.72 35.76) scale(1.04 1)"><tspan x="0" y="0">p</tspan></text>
</svg>