<svg id="visual" viewBox="0 0 960 200" width="960" height="200" xmlns="http://www.w3.org/2000/svg" xmlns:xlink="http://www.w3.org/1999/xlink" version="1.1"><path d="M0 153L22.8 152.5C45.7 152 91.3 151 137 151.7C182.7 152.3 228.3 154.7 274 154C319.7 153.3 365.3 149.7 411.2 145.2C457 140.7 503 135.3 548.8 132.8C594.7 130.3 640.3 130.7 686 135.2C731.7 139.7 777.3 148.3 823 148.3C868.7 148.3 914.3 139.7 937.2 135.3L960 131L960 0L937.2 0C914.3 0 868.7 0 823 0C777.3 0 731.7 0 686 0C640.3 0 594.7 0 548.8 0C503 0 457 0 411.2 0C365.3 0 319.7 0 274 0C228.3 0 182.7 0 137 0C91.3 0 45.7 0 22.8 0L0 0Z" fill="#fafafa"></path><path d="M0 108L22.8 108.3C45.7 108.7 91.3 109.3 137 111.2C182.7 113 228.3 116 274 115.8C319.7 115.7 365.3 112.3 411.2 109.8C457 107.3 503 105.7 548.8 107.5C594.7 109.3 640.3 114.7 686 117C731.7 119.3 777.3 118.7 823 119.5C868.7 120.3 914.3 122.7 937.2 123.8L960 125L960 0L937.2 0C914.3 0 868.7 0 823 0C777.3 0 731.7 0 686 0C640.3 0 594.7 0 548.8 0C503 0 457 0 411.2 0C365.3 0 319.7 0 274 0C228.3 0 182.7 0 137 0C91.3 0 45.7 0 22.8 0L0 0Z" fill="#e6f1d1"></path><path d="M0 106L22.8 102.8C45.7 99.7 91.3 93.3 137 91.8C182.7 90.3 228.3 93.7 274 93.5C319.7 93.3 365.3 89.7 411.2 88.5C457 87.3 503 88.7 548.8 90.8C594.7 93 640.3 96 686 95.7C731.7 95.3 777.3 91.7 823 89C868.7 86.3 914.3 84.7 937.2 83.8L960 83L960 0L937.2 0C914.3 0 868.7 0 823 0C777.3 0 731.7 0 686 0C640.3 0 594.7 0 548.8 0C503 0 457 0 411.2 0C365.3 0 319.7 0 274 0C228.3 0 182.7 0 137 0C91.3 0 45.7 0 22.8 0L0 0Z" fill="#d0e8a8"></path><path d="M0 66L22.8 67C45.7 68 91.3 70 137 69.3C182.7 68.7 228.3 65.3 274 67.2C319.7 69 365.3 76 411.2 79.5C457 83 503 83 548.8 83.2C594.7 83.3 640.3 83.7 686 80.8C731.7 78 777.3 72 823 70.7C868.7 69.3 914.3 72.7 937.2 74.3L960 76L960 0L937.2 0C914.3 0 868.7 0 823 0C777.3 0 731.7 0 686 0C640.3 0 594.7 0 548.8 0C503 0 457 0 411.2 0C365.3 0 319.7 0 274 0C228.3 0 182.7 0 137 0C91.3 0 45.7 0 22.8 0L0 0Z" fill="#b9df7f"></path><path d="M0 41L22.8 42.3C45.7 43.7 91.3 46.3 137 49.5C182.7 52.7 228.3 56.3 274 56.5C319.7 56.7 365.3 53.3 411.2 52.2C457 51 503 52 548.8 50.7C594.7 49.3 640.3 45.7 686 45.3C731.7 45 777.3 48 823 48.8C868.7 49.7 914.3 48.3 937.2 47.7L960 47L960 0L937.2 0C914.3 0 868.7 0 823 0C777.3 0 731.7 0 686 0C640.3 0 594.7 0 548.8 0C503 0 457 0 411.2 0C365.3 0 319.7 0 274 0C228.3 0 182.7 0 137 0C91.3 0 45.7 0 22.8 0L0 0Z" fill="#a0d653"></path><path d="M0 22L22.8 22C45.7 22 91.3 22 137 23C182.7 24 228.3 26 274 27.3C319.7 28.7 365.3 29.3 411.2 29C457 28.7 503 27.3 548.8 27.3C594.7 27.3 640.3 28.7 686 29C731.7 29.3 777.3 28.7 823 29.5C868.7 30.3 914.3 32.7 937.2 33.8L960 35L960 0L937.2 0C914.3 0 868.7 0 823 0C777.3 0 731.7 0 686 0C640.3 0 594.7 0 548.8 0C503 0 457 0 411.2 0C365.3 0 319.7 0 274 0C228.3 0 182.7 0 137 0C91.3 0 45.7 0 22.8 0L0 0Z" fill="#84cc16"></path></svg>