<svg id="visual" viewBox="0 0 960 200" width="960" height="200" xmlns="http://www.w3.org/2000/svg" xmlns:xlink="http://www.w3.org/1999/xlink" version="1.1"><path d="M0 148L22.8 146.7C45.7 145.3 91.3 142.7 137 143.5C182.7 144.3 228.3 148.7 274 148.7C319.7 148.7 365.3 144.3 411.2 144.8C457 145.3 503 150.7 548.8 151.2C594.7 151.7 640.3 147.3 686 147.3C731.7 147.3 777.3 151.7 823 153.3C868.7 155 914.3 154 937.2 153.5L960 153L960 0L937.2 0C914.3 0 868.7 0 823 0C777.3 0 731.7 0 686 0C640.3 0 594.7 0 548.8 0C503 0 457 0 411.2 0C365.3 0 319.7 0 274 0C228.3 0 182.7 0 137 0C91.3 0 45.7 0 22.8 0L0 0Z" fill="#f5ffe7"></path><path d="M0 137L22.8 137C45.7 137 91.3 137 137 135.7C182.7 134.3 228.3 131.7 274 131.8C319.7 132 365.3 135 411.2 135.5C457 136 503 134 548.8 130.8C594.7 127.7 640.3 123.3 686 124C731.7 124.7 777.3 130.3 823 133.5C868.7 136.7 914.3 137.3 937.2 137.7L960 138L960 0L937.2 0C914.3 0 868.7 0 823 0C777.3 0 731.7 0 686 0C640.3 0 594.7 0 548.8 0C503 0 457 0 411.2 0C365.3 0 319.7 0 274 0C228.3 0 182.7 0 137 0C91.3 0 45.7 0 22.8 0L0 0Z" fill="#e0f5c2"></path><path d="M0 111L22.8 107.5C45.7 104 91.3 97 137 95.5C182.7 94 228.3 98 274 100.5C319.7 103 365.3 104 411.2 102.3C457 100.7 503 96.3 548.8 93.7C594.7 91 640.3 90 686 90.2C731.7 90.3 777.3 91.7 823 94.8C868.7 98 914.3 103 937.2 105.5L960 108L960 0L937.2 0C914.3 0 868.7 0 823 0C777.3 0 731.7 0 686 0C640.3 0 594.7 0 548.8 0C503 0 457 0 411.2 0C365.3 0 319.7 0 274 0C228.3 0 182.7 0 137 0C91.3 0 45.7 0 22.8 0L0 0Z" fill="#caeb9d"></path><path d="M0 70L22.8 71.2C45.7 72.3 91.3 74.7 137 74.2C182.7 73.7 228.3 70.3 274 69.8C319.7 69.3 365.3 71.7 411.2 72C457 72.3 503 70.7 548.8 72.3C594.7 74 640.3 79 686 80.3C731.7 81.7 777.3 79.3 823 79.3C868.7 79.3 914.3 81.7 937.2 82.8L960 84L960 0L937.2 0C914.3 0 868.7 0 823 0C777.3 0 731.7 0 686 0C640.3 0 594.7 0 548.8 0C503 0 457 0 411.2 0C365.3 0 319.7 0 274 0C228.3 0 182.7 0 137 0C91.3 0 45.7 0 22.8 0L0 0Z" fill="#b4e177"></path><path d="M0 58L22.8 56.7C45.7 55.3 91.3 52.7 137 51.8C182.7 51 228.3 52 274 51C319.7 50 365.3 47 411.2 48.3C457 49.7 503 55.3 548.8 58.2C594.7 61 640.3 61 686 58.7C731.7 56.3 777.3 51.7 823 50.5C868.7 49.3 914.3 51.7 937.2 52.8L960 54L960 0L937.2 0C914.3 0 868.7 0 823 0C777.3 0 731.7 0 686 0C640.3 0 594.7 0 548.8 0C503 0 457 0 411.2 0C365.3 0 319.7 0 274 0C228.3 0 182.7 0 137 0C91.3 0 45.7 0 22.8 0L0 0Z" fill="#9dd74f"></path><path d="M0 29L22.8 29.3C45.7 29.7 91.3 30.3 137 31.3C182.7 32.3 228.3 33.7 274 33.3C319.7 33 365.3 31 411.2 29.3C457 27.7 503 26.3 548.8 26.3C594.7 26.3 640.3 27.7 686 27C731.7 26.3 777.3 23.7 823 22.2C868.7 20.7 914.3 20.3 937.2 20.2L960 20L960 0L937.2 0C914.3 0 868.7 0 823 0C777.3 0 731.7 0 686 0C640.3 0 594.7 0 548.8 0C503 0 457 0 411.2 0C365.3 0 319.7 0 274 0C228.3 0 182.7 0 137 0C91.3 0 45.7 0 22.8 0L0 0Z" fill="#84cc16"></path></svg>