<svg id="visual" viewBox="0 0 960 300" width="960" height="300" xmlns="http://www.w3.org/2000/svg" xmlns:xlink="http://www.w3.org/1999/xlink" version="1.1"><path d="M0 161L22.8 160.3C45.7 159.7 91.3 158.3 137 159C182.7 159.7 228.3 162.3 274 161.8C319.7 161.3 365.3 157.7 411.2 152.8C457 148 503 142 548.8 139.2C594.7 136.3 640.3 136.7 686 141.5C731.7 146.3 777.3 155.7 823 155.7C868.7 155.7 914.3 146.3 937.2 141.7L960 137L960 0L937.2 0C914.3 0 868.7 0 823 0C777.3 0 731.7 0 686 0C640.3 0 594.7 0 548.8 0C503 0 457 0 411.2 0C365.3 0 319.7 0 274 0C228.3 0 182.7 0 137 0C91.3 0 45.7 0 22.8 0L0 0Z" fill="#fafafa"></path><path d="M0 113L22.8 113.5C45.7 114 91.3 115 137 117C182.7 119 228.3 122 274 121.8C319.7 121.7 365.3 118.3 411.2 115.7C457 113 503 111 548.8 112.8C594.7 114.7 640.3 120.3 686 122.8C731.7 125.3 777.3 124.7 823 125.5C868.7 126.3 914.3 128.7 937.2 129.8L960 131L960 0L937.2 0C914.3 0 868.7 0 823 0C777.3 0 731.7 0 686 0C640.3 0 594.7 0 548.8 0C503 0 457 0 411.2 0C365.3 0 319.7 0 274 0C228.3 0 182.7 0 137 0C91.3 0 45.7 0 22.8 0L0 0Z" fill="#e6f1d1"></path><path d="M0 112L22.8 108.7C45.7 105.3 91.3 98.7 137 97C182.7 95.3 228.3 98.7 274 98.3C319.7 98 365.3 94 411.2 92.7C457 91.3 503 92.7 548.8 95C594.7 97.3 640.3 100.7 686 100.3C731.7 100 777.3 96 823 93.3C868.7 90.7 914.3 89.3 937.2 88.7L960 88L960 0L937.2 0C914.3 0 868.7 0 823 0C777.3 0 731.7 0 686 0C640.3 0 594.7 0 548.8 0C503 0 457 0 411.2 0C365.3 0 319.7 0 274 0C228.3 0 182.7 0 137 0C91.3 0 45.7 0 22.8 0L0 0Z" fill="#d0e8a8"></path><path d="M0 69L22.8 70.2C45.7 71.3 91.3 73.7 137 73C182.7 72.3 228.3 68.7 274 70.5C319.7 72.3 365.3 79.7 411.2 83.3C457 87 503 87 548.8 87.2C594.7 87.3 640.3 87.7 686 84.7C731.7 81.7 777.3 75.3 823 73.8C868.7 72.3 914.3 75.7 937.2 77.3L960 79L960 0L937.2 0C914.3 0 868.7 0 823 0C777.3 0 731.7 0 686 0C640.3 0 594.7 0 548.8 0C503 0 457 0 411.2 0C365.3 0 319.7 0 274 0C228.3 0 182.7 0 137 0C91.3 0 45.7 0 22.8 0L0 0Z" fill="#b9df7f"></path><path d="M0 43L22.8 44.3C45.7 45.7 91.3 48.3 137 51.7C182.7 55 228.3 59 274 59.3C319.7 59.7 365.3 56.3 411.2 55.2C457 54 503 55 548.8 53.5C594.7 52 640.3 48 686 47.5C731.7 47 777.3 50 823 50.8C868.7 51.7 914.3 50.3 937.2 49.7L960 49L960 0L937.2 0C914.3 0 868.7 0 823 0C777.3 0 731.7 0 686 0C640.3 0 594.7 0 548.8 0C503 0 457 0 411.2 0C365.3 0 319.7 0 274 0C228.3 0 182.7 0 137 0C91.3 0 45.7 0 22.8 0L0 0Z" fill="#a0d653"></path><path d="M0 23L22.8 23C45.7 23 91.3 23 137 24.2C182.7 25.3 228.3 27.7 274 29.2C319.7 30.7 365.3 31.3 411.2 31C457 30.7 503 29.3 548.8 29.2C594.7 29 640.3 30 686 30.2C731.7 30.3 777.3 29.7 823 30.7C868.7 31.7 914.3 34.3 937.2 35.7L960 37L960 0L937.2 0C914.3 0 868.7 0 823 0C777.3 0 731.7 0 686 0C640.3 0 594.7 0 548.8 0C503 0 457 0 411.2 0C365.3 0 319.7 0 274 0C228.3 0 182.7 0 137 0C91.3 0 45.7 0 22.8 0L0 0Z" fill="#84cc16"></path></svg>