<svg id="visual" viewBox="0 0 960 200" width="960" height="200" xmlns="http://www.w3.org/2000/svg" xmlns:xlink="http://www.w3.org/1999/xlink" version="1.1"><path d="M0 162L22.8 160.5C45.7 159 91.3 156 137 155.3C182.7 154.7 228.3 156.3 274 154.8C319.7 153.3 365.3 148.7 411.2 145.5C457 142.3 503 140.7 548.8 140.8C594.7 141 640.3 143 686 143.5C731.7 144 777.3 143 823 146.2C868.7 149.3 914.3 156.7 937.2 160.3L960 164L960 0L937.2 0C914.3 0 868.7 0 823 0C777.3 0 731.7 0 686 0C640.3 0 594.7 0 548.8 0C503 0 457 0 411.2 0C365.3 0 319.7 0 274 0C228.3 0 182.7 0 137 0C91.3 0 45.7 0 22.8 0L0 0Z" fill="#fafafa"></path><path d="M0 138L22.8 136.3C45.7 134.7 91.3 131.3 137 130.7C182.7 130 228.3 132 274 132.3C319.7 132.7 365.3 131.3 411.2 129C457 126.7 503 123.3 548.8 122C594.7 120.7 640.3 121.3 686 123C731.7 124.7 777.3 127.3 823 130.2C868.7 133 914.3 136 937.2 137.5L960 139L960 0L937.2 0C914.3 0 868.7 0 823 0C777.3 0 731.7 0 686 0C640.3 0 594.7 0 548.8 0C503 0 457 0 411.2 0C365.3 0 319.7 0 274 0C228.3 0 182.7 0 137 0C91.3 0 45.7 0 22.8 0L0 0Z" fill="#cfd7d0"></path><path d="M0 118L22.8 116C45.7 114 91.3 110 137 108.3C182.7 106.7 228.3 107.3 274 106C319.7 104.7 365.3 101.3 411.2 101.5C457 101.7 503 105.3 548.8 106.3C594.7 107.3 640.3 105.7 686 106.5C731.7 107.3 777.3 110.7 823 109.8C868.7 109 914.3 104 937.2 101.5L960 99L960 0L937.2 0C914.3 0 868.7 0 823 0C777.3 0 731.7 0 686 0C640.3 0 594.7 0 548.8 0C503 0 457 0 411.2 0C365.3 0 319.7 0 274 0C228.3 0 182.7 0 137 0C91.3 0 45.7 0 22.8 0L0 0Z" fill="#a6b5a8"></path><path d="M0 93L22.8 93.7C45.7 94.3 91.3 95.7 137 93.2C182.7 90.7 228.3 84.3 274 83C319.7 81.7 365.3 85.3 411.2 87.8C457 90.3 503 91.7 548.8 92.5C594.7 93.3 640.3 93.7 686 92.7C731.7 91.7 777.3 89.3 823 88.2C868.7 87 914.3 87 937.2 87L960 87L960 0L937.2 0C914.3 0 868.7 0 823 0C777.3 0 731.7 0 686 0C640.3 0 594.7 0 548.8 0C503 0 457 0 411.2 0C365.3 0 319.7 0 274 0C228.3 0 182.7 0 137 0C91.3 0 45.7 0 22.8 0L0 0Z" fill="#7e9482"></path><path d="M0 60L22.8 61C45.7 62 91.3 64 137 64.8C182.7 65.7 228.3 65.3 274 65.5C319.7 65.7 365.3 66.3 411.2 65.2C457 64 503 61 548.8 61.5C594.7 62 640.3 66 686 68.5C731.7 71 777.3 72 823 70C868.7 68 914.3 63 937.2 60.5L960 58L960 0L937.2 0C914.3 0 868.7 0 823 0C777.3 0 731.7 0 686 0C640.3 0 594.7 0 548.8 0C503 0 457 0 411.2 0C365.3 0 319.7 0 274 0C228.3 0 182.7 0 137 0C91.3 0 45.7 0 22.8 0L0 0Z" fill="#58745d"></path><path d="M0 39L22.8 39.7C45.7 40.3 91.3 41.7 137 42.2C182.7 42.7 228.3 42.3 274 42.2C319.7 42 365.3 42 411.2 42.5C457 43 503 44 548.8 44.5C594.7 45 640.3 45 686 45.5C731.7 46 777.3 47 823 47.5C868.7 48 914.3 48 937.2 48L960 48L960 0L937.2 0C914.3 0 868.7 0 823 0C777.3 0 731.7 0 686 0C640.3 0 594.7 0 548.8 0C503 0 457 0 411.2 0C365.3 0 319.7 0 274 0C228.3 0 182.7 0 137 0C91.3 0 45.7 0 22.8 0L0 0Z" fill="#33563b"></path><path d="M0 29L22.8 27.7C45.7 26.3 91.3 23.7 137 22.5C182.7 21.3 228.3 21.7 274 23C319.7 24.3 365.3 26.7 411.2 28.2C457 29.7 503 30.3 548.8 28.3C594.7 26.3 640.3 21.7 686 19.3C731.7 17 777.3 17 823 17.8C868.7 18.7 914.3 20.3 937.2 21.2L960 22L960 0L937.2 0C914.3 0 868.7 0 823 0C777.3 0 731.7 0 686 0C640.3 0 594.7 0 548.8 0C503 0 457 0 411.2 0C365.3 0 319.7 0 274 0C228.3 0 182.7 0 137 0C91.3 0 45.7 0 22.8 0L0 0Z" fill="#0b391b"></path></svg>